G04 #@! TF.GenerationSoftware,KiCad,Pcbnew,9.0.2*
G04 #@! TF.CreationDate,2025-07-01T11:42:46-07:00*
G04 #@! TF.ProjectId,osu_keypad,6f73755f-6b65-4797-9061-642e6b696361,rev?*
G04 #@! TF.SameCoordinates,Original*
G04 #@! TF.FileFunction,Legend,Top*
G04 #@! TF.FilePolarity,Positive*
%FSLAX46Y46*%
G04 Gerber Fmt 4.6, Leading zero omitted, Abs format (unit mm)*
G04 Created by KiCad (PCBNEW 9.0.2) date 2025-07-01 11:42:46*
%MOMM*%
%LPD*%
G01*
G04 APERTURE LIST*
%ADD10C,0.101600*%
%ADD11C,0.150000*%
%ADD12C,0.127000*%
%ADD13C,0.100000*%
%ADD14C,0.504000*%
%ADD15C,0.120000*%
G04 #@! TA.AperFunction,Profile*
%ADD16C,0.050000*%
G04 #@! TD*
G04 APERTURE END LIST*
D10*
X108286190Y-63853479D02*
X108286190Y-64367526D01*
X108286190Y-64367526D02*
X108316428Y-64428002D01*
X108316428Y-64428002D02*
X108346666Y-64458241D01*
X108346666Y-64458241D02*
X108407142Y-64488479D01*
X108407142Y-64488479D02*
X108528095Y-64488479D01*
X108528095Y-64488479D02*
X108588571Y-64458241D01*
X108588571Y-64458241D02*
X108618809Y-64428002D01*
X108618809Y-64428002D02*
X108649047Y-64367526D01*
X108649047Y-64367526D02*
X108649047Y-63853479D01*
X108921190Y-63913955D02*
X108951428Y-63883717D01*
X108951428Y-63883717D02*
X109011904Y-63853479D01*
X109011904Y-63853479D02*
X109163095Y-63853479D01*
X109163095Y-63853479D02*
X109223571Y-63883717D01*
X109223571Y-63883717D02*
X109253809Y-63913955D01*
X109253809Y-63913955D02*
X109284047Y-63974431D01*
X109284047Y-63974431D02*
X109284047Y-64034907D01*
X109284047Y-64034907D02*
X109253809Y-64125621D01*
X109253809Y-64125621D02*
X108890952Y-64488479D01*
X108890952Y-64488479D02*
X109284047Y-64488479D01*
D11*
X136159970Y-131710325D02*
X136302827Y-131757944D01*
X136302827Y-131757944D02*
X136540922Y-131757944D01*
X136540922Y-131757944D02*
X136636160Y-131710325D01*
X136636160Y-131710325D02*
X136683779Y-131662705D01*
X136683779Y-131662705D02*
X136731398Y-131567467D01*
X136731398Y-131567467D02*
X136731398Y-131472229D01*
X136731398Y-131472229D02*
X136683779Y-131376991D01*
X136683779Y-131376991D02*
X136636160Y-131329372D01*
X136636160Y-131329372D02*
X136540922Y-131281753D01*
X136540922Y-131281753D02*
X136350446Y-131234134D01*
X136350446Y-131234134D02*
X136255208Y-131186515D01*
X136255208Y-131186515D02*
X136207589Y-131138896D01*
X136207589Y-131138896D02*
X136159970Y-131043658D01*
X136159970Y-131043658D02*
X136159970Y-130948420D01*
X136159970Y-130948420D02*
X136207589Y-130853182D01*
X136207589Y-130853182D02*
X136255208Y-130805563D01*
X136255208Y-130805563D02*
X136350446Y-130757944D01*
X136350446Y-130757944D02*
X136588541Y-130757944D01*
X136588541Y-130757944D02*
X136731398Y-130805563D01*
X137064732Y-130757944D02*
X137683779Y-130757944D01*
X137683779Y-130757944D02*
X137350446Y-131138896D01*
X137350446Y-131138896D02*
X137493303Y-131138896D01*
X137493303Y-131138896D02*
X137588541Y-131186515D01*
X137588541Y-131186515D02*
X137636160Y-131234134D01*
X137636160Y-131234134D02*
X137683779Y-131329372D01*
X137683779Y-131329372D02*
X137683779Y-131567467D01*
X137683779Y-131567467D02*
X137636160Y-131662705D01*
X137636160Y-131662705D02*
X137588541Y-131710325D01*
X137588541Y-131710325D02*
X137493303Y-131757944D01*
X137493303Y-131757944D02*
X137207589Y-131757944D01*
X137207589Y-131757944D02*
X137112351Y-131710325D01*
X137112351Y-131710325D02*
X137064732Y-131662705D01*
X129986905Y-88429819D02*
X129986905Y-87429819D01*
X129986905Y-87429819D02*
X130225000Y-87429819D01*
X130225000Y-87429819D02*
X130367857Y-87477438D01*
X130367857Y-87477438D02*
X130463095Y-87572676D01*
X130463095Y-87572676D02*
X130510714Y-87667914D01*
X130510714Y-87667914D02*
X130558333Y-87858390D01*
X130558333Y-87858390D02*
X130558333Y-88001247D01*
X130558333Y-88001247D02*
X130510714Y-88191723D01*
X130510714Y-88191723D02*
X130463095Y-88286961D01*
X130463095Y-88286961D02*
X130367857Y-88382200D01*
X130367857Y-88382200D02*
X130225000Y-88429819D01*
X130225000Y-88429819D02*
X129986905Y-88429819D01*
X131463095Y-87429819D02*
X130986905Y-87429819D01*
X130986905Y-87429819D02*
X130939286Y-87906009D01*
X130939286Y-87906009D02*
X130986905Y-87858390D01*
X130986905Y-87858390D02*
X131082143Y-87810771D01*
X131082143Y-87810771D02*
X131320238Y-87810771D01*
X131320238Y-87810771D02*
X131415476Y-87858390D01*
X131415476Y-87858390D02*
X131463095Y-87906009D01*
X131463095Y-87906009D02*
X131510714Y-88001247D01*
X131510714Y-88001247D02*
X131510714Y-88239342D01*
X131510714Y-88239342D02*
X131463095Y-88334580D01*
X131463095Y-88334580D02*
X131415476Y-88382200D01*
X131415476Y-88382200D02*
X131320238Y-88429819D01*
X131320238Y-88429819D02*
X131082143Y-88429819D01*
X131082143Y-88429819D02*
X130986905Y-88382200D01*
X130986905Y-88382200D02*
X130939286Y-88334580D01*
X127753571Y-90212295D02*
X127296428Y-90212295D01*
X127525000Y-90212295D02*
X127525000Y-89412295D01*
X127525000Y-89412295D02*
X127448809Y-89526580D01*
X127448809Y-89526580D02*
X127372619Y-89602771D01*
X127372619Y-89602771D02*
X127296428Y-89640866D01*
X98059970Y-131710325D02*
X98202827Y-131757944D01*
X98202827Y-131757944D02*
X98440922Y-131757944D01*
X98440922Y-131757944D02*
X98536160Y-131710325D01*
X98536160Y-131710325D02*
X98583779Y-131662705D01*
X98583779Y-131662705D02*
X98631398Y-131567467D01*
X98631398Y-131567467D02*
X98631398Y-131472229D01*
X98631398Y-131472229D02*
X98583779Y-131376991D01*
X98583779Y-131376991D02*
X98536160Y-131329372D01*
X98536160Y-131329372D02*
X98440922Y-131281753D01*
X98440922Y-131281753D02*
X98250446Y-131234134D01*
X98250446Y-131234134D02*
X98155208Y-131186515D01*
X98155208Y-131186515D02*
X98107589Y-131138896D01*
X98107589Y-131138896D02*
X98059970Y-131043658D01*
X98059970Y-131043658D02*
X98059970Y-130948420D01*
X98059970Y-130948420D02*
X98107589Y-130853182D01*
X98107589Y-130853182D02*
X98155208Y-130805563D01*
X98155208Y-130805563D02*
X98250446Y-130757944D01*
X98250446Y-130757944D02*
X98488541Y-130757944D01*
X98488541Y-130757944D02*
X98631398Y-130805563D01*
X99583779Y-131757944D02*
X99012351Y-131757944D01*
X99298065Y-131757944D02*
X99298065Y-130757944D01*
X99298065Y-130757944D02*
X99202827Y-130900801D01*
X99202827Y-130900801D02*
X99107589Y-130996039D01*
X99107589Y-130996039D02*
X99012351Y-131043658D01*
X117109970Y-131710325D02*
X117252827Y-131757944D01*
X117252827Y-131757944D02*
X117490922Y-131757944D01*
X117490922Y-131757944D02*
X117586160Y-131710325D01*
X117586160Y-131710325D02*
X117633779Y-131662705D01*
X117633779Y-131662705D02*
X117681398Y-131567467D01*
X117681398Y-131567467D02*
X117681398Y-131472229D01*
X117681398Y-131472229D02*
X117633779Y-131376991D01*
X117633779Y-131376991D02*
X117586160Y-131329372D01*
X117586160Y-131329372D02*
X117490922Y-131281753D01*
X117490922Y-131281753D02*
X117300446Y-131234134D01*
X117300446Y-131234134D02*
X117205208Y-131186515D01*
X117205208Y-131186515D02*
X117157589Y-131138896D01*
X117157589Y-131138896D02*
X117109970Y-131043658D01*
X117109970Y-131043658D02*
X117109970Y-130948420D01*
X117109970Y-130948420D02*
X117157589Y-130853182D01*
X117157589Y-130853182D02*
X117205208Y-130805563D01*
X117205208Y-130805563D02*
X117300446Y-130757944D01*
X117300446Y-130757944D02*
X117538541Y-130757944D01*
X117538541Y-130757944D02*
X117681398Y-130805563D01*
X118062351Y-130853182D02*
X118109970Y-130805563D01*
X118109970Y-130805563D02*
X118205208Y-130757944D01*
X118205208Y-130757944D02*
X118443303Y-130757944D01*
X118443303Y-130757944D02*
X118538541Y-130805563D01*
X118538541Y-130805563D02*
X118586160Y-130853182D01*
X118586160Y-130853182D02*
X118633779Y-130948420D01*
X118633779Y-130948420D02*
X118633779Y-131043658D01*
X118633779Y-131043658D02*
X118586160Y-131186515D01*
X118586160Y-131186515D02*
X118014732Y-131757944D01*
X118014732Y-131757944D02*
X118633779Y-131757944D01*
X106808780Y-88429819D02*
X106808780Y-87429819D01*
X106808780Y-87429819D02*
X107046875Y-87429819D01*
X107046875Y-87429819D02*
X107189732Y-87477438D01*
X107189732Y-87477438D02*
X107284970Y-87572676D01*
X107284970Y-87572676D02*
X107332589Y-87667914D01*
X107332589Y-87667914D02*
X107380208Y-87858390D01*
X107380208Y-87858390D02*
X107380208Y-88001247D01*
X107380208Y-88001247D02*
X107332589Y-88191723D01*
X107332589Y-88191723D02*
X107284970Y-88286961D01*
X107284970Y-88286961D02*
X107189732Y-88382200D01*
X107189732Y-88382200D02*
X107046875Y-88429819D01*
X107046875Y-88429819D02*
X106808780Y-88429819D01*
X108237351Y-87763152D02*
X108237351Y-88429819D01*
X107999256Y-87382200D02*
X107761161Y-88096485D01*
X107761161Y-88096485D02*
X108380208Y-88096485D01*
X104575446Y-90212295D02*
X104118303Y-90212295D01*
X104346875Y-90212295D02*
X104346875Y-89412295D01*
X104346875Y-89412295D02*
X104270684Y-89526580D01*
X104270684Y-89526580D02*
X104194494Y-89602771D01*
X104194494Y-89602771D02*
X104118303Y-89640866D01*
D12*
X108380000Y-84709000D02*
X108380000Y-67564000D01*
X110285000Y-86614000D02*
X124255000Y-86614000D01*
X112775000Y-65659000D02*
X112778728Y-64748728D01*
X113278728Y-64249000D02*
X121274000Y-64249000D01*
X121774000Y-64749000D02*
X121774000Y-65659000D01*
D13*
X124255000Y-65659000D02*
X110285000Y-65659000D01*
D12*
X124255000Y-65659000D02*
X110285000Y-65659000D01*
X126160000Y-84709000D02*
X126160000Y-67564000D01*
X108380000Y-67564000D02*
G75*
G02*
X110285000Y-65659000I1905001J-1D01*
G01*
X110285000Y-86614000D02*
G75*
G02*
X108380000Y-84709000I1J1905001D01*
G01*
X112778728Y-64748728D02*
G75*
G02*
X113278728Y-64249001I500018J-291D01*
G01*
X121274000Y-64249000D02*
G75*
G02*
X121774000Y-64749000I0J-500000D01*
G01*
X124255000Y-65659000D02*
G75*
G02*
X126160000Y-67564000I0J-1905000D01*
G01*
X126160000Y-84709000D02*
G75*
G02*
X124255000Y-86614000I-1905000J0D01*
G01*
D14*
X108572000Y-65900000D02*
G75*
G02*
X108068000Y-65900000I-252000J0D01*
G01*
X108068000Y-65900000D02*
G75*
G02*
X108572000Y-65900000I252000J0D01*
G01*
X109715000Y-66780000D02*
G75*
G02*
X109211000Y-66780000I-252000J0D01*
G01*
X109211000Y-66780000D02*
G75*
G02*
X109715000Y-66780000I252000J0D01*
G01*
D15*
X129821875Y-132203125D02*
X129821875Y-146403125D01*
X129821875Y-146403125D02*
X144021875Y-146403125D01*
X144021875Y-132203125D02*
X129821875Y-132203125D01*
X144021875Y-146403125D02*
X144021875Y-132203125D01*
X127925000Y-88725000D02*
X127925000Y-92725000D01*
X127925000Y-88725000D02*
X133525000Y-88725000D01*
X127925000Y-92725000D02*
X132925000Y-92725000D01*
X133525000Y-92125000D02*
X132925000Y-92725000D01*
X133525000Y-92125000D02*
X133525000Y-88725000D01*
X91721875Y-132203125D02*
X91721875Y-146403125D01*
X91721875Y-146403125D02*
X105921875Y-146403125D01*
X105921875Y-132203125D02*
X91721875Y-132203125D01*
X105921875Y-146403125D02*
X105921875Y-132203125D01*
X110771875Y-132203125D02*
X110771875Y-146403125D01*
X110771875Y-146403125D02*
X124971875Y-146403125D01*
X124971875Y-132203125D02*
X110771875Y-132203125D01*
X124971875Y-146403125D02*
X124971875Y-132203125D01*
D13*
X145896875Y-139653125D02*
X146996875Y-139653125D01*
X146046875Y-139053125D02*
X146846875Y-139053125D01*
X146446875Y-139053125D02*
X146446875Y-138553125D01*
X146446875Y-139653125D02*
X146046875Y-139053125D01*
X146446875Y-140053125D02*
X146446875Y-139653125D01*
X146846875Y-139053125D02*
X146446875Y-139653125D01*
X126846875Y-139653125D02*
X127946875Y-139653125D01*
X126996875Y-139053125D02*
X127796875Y-139053125D01*
X127396875Y-139053125D02*
X127396875Y-138553125D01*
X127396875Y-139653125D02*
X126996875Y-139053125D01*
X127396875Y-140053125D02*
X127396875Y-139653125D01*
X127796875Y-139053125D02*
X127396875Y-139653125D01*
X107796875Y-139891250D02*
X108896875Y-139891250D01*
X107946875Y-139291250D02*
X108746875Y-139291250D01*
X108346875Y-139291250D02*
X108346875Y-138791250D01*
X108346875Y-139891250D02*
X107946875Y-139291250D01*
X108346875Y-140291250D02*
X108346875Y-139891250D01*
X108746875Y-139291250D02*
X108346875Y-139891250D01*
D15*
X104746875Y-88725000D02*
X104746875Y-92725000D01*
X104746875Y-88725000D02*
X110346875Y-88725000D01*
X104746875Y-92725000D02*
X109746875Y-92725000D01*
X110346875Y-92125000D02*
X109746875Y-92725000D01*
X110346875Y-92125000D02*
X110346875Y-88725000D01*
D16*
X129425000Y-95405000D02*
X134165000Y-92945000D01*
X103584375Y-65484375D02*
X103584375Y-126206250D01*
X129435000Y-125465000D02*
X129425000Y-95405000D01*
X86915625Y-150018750D02*
X148828125Y-150018750D01*
X134165000Y-87495000D02*
X130968750Y-65484375D01*
X86925000Y-129625000D02*
X103584375Y-126206250D01*
X148828125Y-150018750D02*
X148828125Y-129525000D01*
X86915625Y-150018750D02*
X86925000Y-129625000D01*
X134165000Y-92945000D02*
X134165000Y-87495000D01*
X130968750Y-65484375D02*
X103584375Y-65484375D01*
X148828125Y-129525000D02*
X129435000Y-125465000D01*
M02*
