G04 #@! TF.GenerationSoftware,KiCad,Pcbnew,9.0.2*
G04 #@! TF.CreationDate,2025-07-01T11:42:46-07:00*
G04 #@! TF.ProjectId,osu_keypad,6f73755f-6b65-4797-9061-642e6b696361,rev?*
G04 #@! TF.SameCoordinates,Original*
G04 #@! TF.FileFunction,Copper,L2,Bot*
G04 #@! TF.FilePolarity,Positive*
%FSLAX46Y46*%
G04 Gerber Fmt 4.6, Leading zero omitted, Abs format (unit mm)*
G04 Created by KiCad (PCBNEW 9.0.2) date 2025-07-01 11:42:46*
%MOMM*%
%LPD*%
G01*
G04 APERTURE LIST*
G04 #@! TA.AperFunction,ComponentPad*
%ADD10C,1.524000*%
G04 #@! TD*
G04 #@! TA.AperFunction,ComponentPad*
%ADD11C,2.500000*%
G04 #@! TD*
G04 #@! TA.AperFunction,ComponentPad*
%ADD12R,1.600000X1.600000*%
G04 #@! TD*
G04 #@! TA.AperFunction,ComponentPad*
%ADD13O,1.600000X1.600000*%
G04 #@! TD*
G04 #@! TA.AperFunction,Conductor*
%ADD14C,0.200000*%
G04 #@! TD*
G04 #@! TA.AperFunction,Profile*
%ADD15C,0.050000*%
G04 #@! TD*
G04 APERTURE END LIST*
D10*
X109650000Y-68580000D03*
X109650000Y-71120000D03*
X109650000Y-73660000D03*
X109650000Y-76200000D03*
X109650000Y-78740000D03*
X109650000Y-81280000D03*
X109650000Y-83820000D03*
X124890000Y-83820000D03*
X124890000Y-81280000D03*
X124890000Y-78740000D03*
X124890000Y-76200000D03*
X124890000Y-73660000D03*
X124890000Y-71120000D03*
X124890000Y-68580000D03*
D11*
X133111875Y-136763125D03*
X139461875Y-134223125D03*
X95011875Y-136763125D03*
X101361875Y-134223125D03*
X114061875Y-136763125D03*
X120411875Y-134223125D03*
D12*
X146446875Y-143113125D03*
D13*
X146446875Y-135493125D03*
D12*
X127396875Y-143113125D03*
D13*
X127396875Y-135493125D03*
D12*
X108346875Y-143351250D03*
D13*
X108346875Y-135731250D03*
D14*
X124890000Y-140606250D02*
X124890000Y-83820000D01*
X127396875Y-143113125D02*
X124890000Y-140606250D01*
X120225000Y-80865000D02*
X124890000Y-76200000D01*
X120225000Y-111550000D02*
X120225000Y-80865000D01*
X95011875Y-136763125D02*
X120225000Y-111550000D01*
X122725000Y-115225000D02*
X122725000Y-80905000D01*
X114061875Y-136763125D02*
X114061875Y-123888125D01*
X114061875Y-123888125D02*
X122725000Y-115225000D01*
X122725000Y-80905000D02*
X124890000Y-78740000D01*
X128625000Y-82325000D02*
X127580000Y-81280000D01*
X126225000Y-87425000D02*
X128725000Y-84925000D01*
X133111875Y-136763125D02*
X126225000Y-129876250D01*
X128725000Y-82325000D02*
X128625000Y-82325000D01*
X127580000Y-81280000D02*
X124890000Y-81280000D01*
X126225000Y-129876250D02*
X126225000Y-87425000D01*
X128725000Y-84925000D02*
X128725000Y-82325000D01*
D15*
X129425000Y-95405000D02*
X134165000Y-92945000D01*
X103584375Y-65484375D02*
X103584375Y-126206250D01*
X129435000Y-125465000D02*
X129425000Y-95405000D01*
X86915625Y-150018750D02*
X148828125Y-150018750D01*
X134165000Y-87495000D02*
X130968750Y-65484375D01*
X86925000Y-129625000D02*
X103584375Y-126206250D01*
X148828125Y-150018750D02*
X148828125Y-129525000D01*
X86915625Y-150018750D02*
X86925000Y-129625000D01*
X134165000Y-92945000D02*
X134165000Y-87495000D01*
X130968750Y-65484375D02*
X103584375Y-65484375D01*
X148828125Y-129525000D02*
X129435000Y-125465000D01*
M02*
