G04 #@! TF.GenerationSoftware,KiCad,Pcbnew,9.0.2*
G04 #@! TF.CreationDate,2025-07-01T11:42:46-07:00*
G04 #@! TF.ProjectId,osu_keypad,6f73755f-6b65-4797-9061-642e6b696361,rev?*
G04 #@! TF.SameCoordinates,Original*
G04 #@! TF.FileFunction,Soldermask,Bot*
G04 #@! TF.FilePolarity,Negative*
%FSLAX46Y46*%
G04 Gerber Fmt 4.6, Leading zero omitted, Abs format (unit mm)*
G04 Created by KiCad (PCBNEW 9.0.2) date 2025-07-01 11:42:46*
%MOMM*%
%LPD*%
G01*
G04 APERTURE LIST*
%ADD10C,1.524000*%
%ADD11C,1.750000*%
%ADD12C,4.000000*%
%ADD13C,2.500000*%
%ADD14R,1.600000X1.600000*%
%ADD15O,1.600000X1.600000*%
G04 #@! TA.AperFunction,Profile*
%ADD16C,0.050000*%
G04 #@! TD*
G04 APERTURE END LIST*
D10*
X109650000Y-68580000D03*
X109650000Y-71120000D03*
X109650000Y-73660000D03*
X109650000Y-76200000D03*
X109650000Y-78740000D03*
X109650000Y-81280000D03*
X109650000Y-83820000D03*
X124890000Y-83820000D03*
X124890000Y-81280000D03*
X124890000Y-78740000D03*
X124890000Y-76200000D03*
X124890000Y-73660000D03*
X124890000Y-71120000D03*
X124890000Y-68580000D03*
D11*
X131841875Y-139303125D03*
D12*
X136921875Y-139303125D03*
D11*
X142001875Y-139303125D03*
D13*
X133111875Y-136763125D03*
X139461875Y-134223125D03*
D11*
X93741875Y-139303125D03*
D12*
X98821875Y-139303125D03*
D11*
X103901875Y-139303125D03*
D13*
X95011875Y-136763125D03*
X101361875Y-134223125D03*
D11*
X112791875Y-139303125D03*
D12*
X117871875Y-139303125D03*
D11*
X122951875Y-139303125D03*
D13*
X114061875Y-136763125D03*
X120411875Y-134223125D03*
D14*
X146446875Y-143113125D03*
D15*
X146446875Y-135493125D03*
D14*
X127396875Y-143113125D03*
D15*
X127396875Y-135493125D03*
D14*
X108346875Y-143351250D03*
D15*
X108346875Y-135731250D03*
D16*
X129425000Y-95405000D02*
X134165000Y-92945000D01*
X103584375Y-65484375D02*
X103584375Y-126206250D01*
X129435000Y-125465000D02*
X129425000Y-95405000D01*
X86915625Y-150018750D02*
X148828125Y-150018750D01*
X134165000Y-87495000D02*
X130968750Y-65484375D01*
X86925000Y-129625000D02*
X103584375Y-126206250D01*
X148828125Y-150018750D02*
X148828125Y-129525000D01*
X86915625Y-150018750D02*
X86925000Y-129625000D01*
X134165000Y-92945000D02*
X134165000Y-87495000D01*
X130968750Y-65484375D02*
X103584375Y-65484375D01*
X148828125Y-129525000D02*
X129435000Y-125465000D01*
M02*
