%TF.GenerationSoftware,KiCad,Pcbnew,9.0.2*%
%TF.CreationDate,2025-07-01T11:41:15-07:00*%
%TF.ProjectId,osu_keypad,6f73755f-6b65-4797-9061-642e6b696361,rev?*%
%TF.SameCoordinates,Original*%
%TF.FileFunction,Drillmap*%
%TF.FilePolarity,Positive*%
%FSLAX45Y45*%
G04 Gerber Fmt 4.5, Leading zero omitted, Abs format (unit mm)*
G04 Created by KiCad (PCBNEW 9.0.2) date 2025-07-01 11:41:15*
%MOMM*%
%LPD*%
G01*
G04 APERTURE LIST*
%ADD10C,0.050000*%
%ADD11C,0.200000*%
%ADD12C,0.100000*%
%ADD13C,0.150000*%
G04 APERTURE END LIST*
D10*
X12942500Y-9540500D02*
X13416500Y-9294500D01*
X10358438Y-6548437D02*
X10358438Y-12620625D01*
X12943500Y-12546500D02*
X12942500Y-9540500D01*
X8691563Y-15001875D02*
X14882812Y-15001875D01*
X13416500Y-8749500D02*
X13096875Y-6548437D01*
X8692500Y-12962500D02*
X10358438Y-12620625D01*
X14882812Y-15001875D02*
X14882812Y-12952500D01*
X8691563Y-15001875D02*
X8692500Y-12962500D01*
X13416500Y-9294500D02*
X13416500Y-8749500D01*
X13096875Y-6548437D02*
X10358438Y-6548437D01*
X14882812Y-12952500D02*
X12943500Y-12546500D01*
D11*
D12*
X10794688Y-13533125D02*
X10874688Y-13613125D01*
X10874688Y-13533125D02*
X10794688Y-13613125D01*
X10794688Y-14295125D02*
X10874688Y-14375125D01*
X10874688Y-14295125D02*
X10794688Y-14375125D01*
X12699687Y-13509312D02*
X12779687Y-13589312D01*
X12779687Y-13509312D02*
X12699687Y-13589312D01*
X12699687Y-14271312D02*
X12779687Y-14351312D01*
X12779687Y-14271312D02*
X12699687Y-14351312D01*
X14604687Y-13509312D02*
X14684687Y-13589312D01*
X14684687Y-13509312D02*
X14604687Y-13589312D01*
X14604687Y-14271312D02*
X14684687Y-14351312D01*
X14684687Y-14271312D02*
X14604687Y-14351312D01*
X11009450Y-6858000D02*
G75*
G02*
X10920550Y-6858000I-44450J0D01*
G01*
X10920550Y-6858000D02*
G75*
G02*
X11009450Y-6858000I44450J0D01*
G01*
X11009450Y-7112000D02*
G75*
G02*
X10920550Y-7112000I-44450J0D01*
G01*
X10920550Y-7112000D02*
G75*
G02*
X11009450Y-7112000I44450J0D01*
G01*
X11009450Y-7366000D02*
G75*
G02*
X10920550Y-7366000I-44450J0D01*
G01*
X10920550Y-7366000D02*
G75*
G02*
X11009450Y-7366000I44450J0D01*
G01*
X11009450Y-7620000D02*
G75*
G02*
X10920550Y-7620000I-44450J0D01*
G01*
X10920550Y-7620000D02*
G75*
G02*
X11009450Y-7620000I44450J0D01*
G01*
X11009450Y-7874000D02*
G75*
G02*
X10920550Y-7874000I-44450J0D01*
G01*
X10920550Y-7874000D02*
G75*
G02*
X11009450Y-7874000I44450J0D01*
G01*
X11009450Y-8128000D02*
G75*
G02*
X10920550Y-8128000I-44450J0D01*
G01*
X10920550Y-8128000D02*
G75*
G02*
X11009450Y-8128000I44450J0D01*
G01*
X11009450Y-8382000D02*
G75*
G02*
X10920550Y-8382000I-44450J0D01*
G01*
X10920550Y-8382000D02*
G75*
G02*
X11009450Y-8382000I44450J0D01*
G01*
X12533450Y-6858000D02*
G75*
G02*
X12444550Y-6858000I-44450J0D01*
G01*
X12444550Y-6858000D02*
G75*
G02*
X12533450Y-6858000I44450J0D01*
G01*
X12533450Y-7112000D02*
G75*
G02*
X12444550Y-7112000I-44450J0D01*
G01*
X12444550Y-7112000D02*
G75*
G02*
X12533450Y-7112000I44450J0D01*
G01*
X12533450Y-7366000D02*
G75*
G02*
X12444550Y-7366000I-44450J0D01*
G01*
X12444550Y-7366000D02*
G75*
G02*
X12533450Y-7366000I44450J0D01*
G01*
X12533450Y-7620000D02*
G75*
G02*
X12444550Y-7620000I-44450J0D01*
G01*
X12444550Y-7620000D02*
G75*
G02*
X12533450Y-7620000I44450J0D01*
G01*
X12533450Y-7874000D02*
G75*
G02*
X12444550Y-7874000I-44450J0D01*
G01*
X12444550Y-7874000D02*
G75*
G02*
X12533450Y-7874000I44450J0D01*
G01*
X12533450Y-8128000D02*
G75*
G02*
X12444550Y-8128000I-44450J0D01*
G01*
X12444550Y-8128000D02*
G75*
G02*
X12533450Y-8128000I44450J0D01*
G01*
X12533450Y-8382000D02*
G75*
G02*
X12444550Y-8382000I-44450J0D01*
G01*
X12444550Y-8382000D02*
G75*
G02*
X12533450Y-8382000I44450J0D01*
G01*
D13*
X9501188Y-13601312D02*
X9501188Y-13751312D01*
X9426188Y-13676312D02*
X9576188Y-13676312D01*
X10136188Y-13347312D02*
X10136188Y-13497312D01*
X10061188Y-13422312D02*
X10211188Y-13422312D01*
X11406187Y-13601312D02*
X11406187Y-13751312D01*
X11331187Y-13676312D02*
X11481187Y-13676312D01*
X12041187Y-13347312D02*
X12041187Y-13497312D01*
X11966187Y-13422312D02*
X12116187Y-13422312D01*
X13311187Y-13601312D02*
X13311187Y-13751312D01*
X13236187Y-13676312D02*
X13386187Y-13676312D01*
X13946187Y-13347312D02*
X13946187Y-13497312D01*
X13871187Y-13422312D02*
X14021187Y-13422312D01*
D11*
X8949839Y-15315859D02*
X8949839Y-15115859D01*
X8949839Y-15115859D02*
X8997458Y-15115859D01*
X8997458Y-15115859D02*
X9026030Y-15125383D01*
X9026030Y-15125383D02*
X9045077Y-15144430D01*
X9045077Y-15144430D02*
X9054601Y-15163478D01*
X9054601Y-15163478D02*
X9064125Y-15201573D01*
X9064125Y-15201573D02*
X9064125Y-15230144D01*
X9064125Y-15230144D02*
X9054601Y-15268240D01*
X9054601Y-15268240D02*
X9045077Y-15287287D01*
X9045077Y-15287287D02*
X9026030Y-15306335D01*
X9026030Y-15306335D02*
X8997458Y-15315859D01*
X8997458Y-15315859D02*
X8949839Y-15315859D01*
X9149839Y-15315859D02*
X9149839Y-15182525D01*
X9149839Y-15220621D02*
X9159363Y-15201573D01*
X9159363Y-15201573D02*
X9168887Y-15192049D01*
X9168887Y-15192049D02*
X9187935Y-15182525D01*
X9187935Y-15182525D02*
X9206982Y-15182525D01*
X9273649Y-15315859D02*
X9273649Y-15182525D01*
X9273649Y-15115859D02*
X9264125Y-15125383D01*
X9264125Y-15125383D02*
X9273649Y-15134906D01*
X9273649Y-15134906D02*
X9283173Y-15125383D01*
X9283173Y-15125383D02*
X9273649Y-15115859D01*
X9273649Y-15115859D02*
X9273649Y-15134906D01*
X9397458Y-15315859D02*
X9378411Y-15306335D01*
X9378411Y-15306335D02*
X9368887Y-15287287D01*
X9368887Y-15287287D02*
X9368887Y-15115859D01*
X9502220Y-15315859D02*
X9483173Y-15306335D01*
X9483173Y-15306335D02*
X9473649Y-15287287D01*
X9473649Y-15287287D02*
X9473649Y-15115859D01*
X9730792Y-15315859D02*
X9730792Y-15115859D01*
X9730792Y-15115859D02*
X9797458Y-15258716D01*
X9797458Y-15258716D02*
X9864125Y-15115859D01*
X9864125Y-15115859D02*
X9864125Y-15315859D01*
X10045077Y-15315859D02*
X10045077Y-15211097D01*
X10045077Y-15211097D02*
X10035554Y-15192049D01*
X10035554Y-15192049D02*
X10016506Y-15182525D01*
X10016506Y-15182525D02*
X9978411Y-15182525D01*
X9978411Y-15182525D02*
X9959363Y-15192049D01*
X10045077Y-15306335D02*
X10026030Y-15315859D01*
X10026030Y-15315859D02*
X9978411Y-15315859D01*
X9978411Y-15315859D02*
X9959363Y-15306335D01*
X9959363Y-15306335D02*
X9949839Y-15287287D01*
X9949839Y-15287287D02*
X9949839Y-15268240D01*
X9949839Y-15268240D02*
X9959363Y-15249192D01*
X9959363Y-15249192D02*
X9978411Y-15239668D01*
X9978411Y-15239668D02*
X10026030Y-15239668D01*
X10026030Y-15239668D02*
X10045077Y-15230144D01*
X10140316Y-15182525D02*
X10140316Y-15382525D01*
X10140316Y-15192049D02*
X10159363Y-15182525D01*
X10159363Y-15182525D02*
X10197458Y-15182525D01*
X10197458Y-15182525D02*
X10216506Y-15192049D01*
X10216506Y-15192049D02*
X10226030Y-15201573D01*
X10226030Y-15201573D02*
X10235554Y-15220621D01*
X10235554Y-15220621D02*
X10235554Y-15277763D01*
X10235554Y-15277763D02*
X10226030Y-15296811D01*
X10226030Y-15296811D02*
X10216506Y-15306335D01*
X10216506Y-15306335D02*
X10197458Y-15315859D01*
X10197458Y-15315859D02*
X10159363Y-15315859D01*
X10159363Y-15315859D02*
X10140316Y-15306335D01*
X10321268Y-15296811D02*
X10330792Y-15306335D01*
X10330792Y-15306335D02*
X10321268Y-15315859D01*
X10321268Y-15315859D02*
X10311744Y-15306335D01*
X10311744Y-15306335D02*
X10321268Y-15296811D01*
X10321268Y-15296811D02*
X10321268Y-15315859D01*
X10321268Y-15192049D02*
X10330792Y-15201573D01*
X10330792Y-15201573D02*
X10321268Y-15211097D01*
X10321268Y-15211097D02*
X10311744Y-15201573D01*
X10311744Y-15201573D02*
X10321268Y-15192049D01*
X10321268Y-15192049D02*
X10321268Y-15211097D01*
D12*
X8609063Y-15604375D02*
X8689063Y-15684375D01*
X8689063Y-15604375D02*
X8609063Y-15684375D01*
D11*
X8987935Y-15535859D02*
X9006982Y-15535859D01*
X9006982Y-15535859D02*
X9026030Y-15545383D01*
X9026030Y-15545383D02*
X9035554Y-15554906D01*
X9035554Y-15554906D02*
X9045077Y-15573954D01*
X9045077Y-15573954D02*
X9054601Y-15612049D01*
X9054601Y-15612049D02*
X9054601Y-15659668D01*
X9054601Y-15659668D02*
X9045077Y-15697763D01*
X9045077Y-15697763D02*
X9035554Y-15716811D01*
X9035554Y-15716811D02*
X9026030Y-15726335D01*
X9026030Y-15726335D02*
X9006982Y-15735859D01*
X9006982Y-15735859D02*
X8987935Y-15735859D01*
X8987935Y-15735859D02*
X8968887Y-15726335D01*
X8968887Y-15726335D02*
X8959363Y-15716811D01*
X8959363Y-15716811D02*
X8949839Y-15697763D01*
X8949839Y-15697763D02*
X8940316Y-15659668D01*
X8940316Y-15659668D02*
X8940316Y-15612049D01*
X8940316Y-15612049D02*
X8949839Y-15573954D01*
X8949839Y-15573954D02*
X8959363Y-15554906D01*
X8959363Y-15554906D02*
X8968887Y-15545383D01*
X8968887Y-15545383D02*
X8987935Y-15535859D01*
X9140316Y-15716811D02*
X9149839Y-15726335D01*
X9149839Y-15726335D02*
X9140316Y-15735859D01*
X9140316Y-15735859D02*
X9130792Y-15726335D01*
X9130792Y-15726335D02*
X9140316Y-15716811D01*
X9140316Y-15716811D02*
X9140316Y-15735859D01*
X9264125Y-15621573D02*
X9245077Y-15612049D01*
X9245077Y-15612049D02*
X9235554Y-15602525D01*
X9235554Y-15602525D02*
X9226030Y-15583478D01*
X9226030Y-15583478D02*
X9226030Y-15573954D01*
X9226030Y-15573954D02*
X9235554Y-15554906D01*
X9235554Y-15554906D02*
X9245077Y-15545383D01*
X9245077Y-15545383D02*
X9264125Y-15535859D01*
X9264125Y-15535859D02*
X9302220Y-15535859D01*
X9302220Y-15535859D02*
X9321268Y-15545383D01*
X9321268Y-15545383D02*
X9330792Y-15554906D01*
X9330792Y-15554906D02*
X9340316Y-15573954D01*
X9340316Y-15573954D02*
X9340316Y-15583478D01*
X9340316Y-15583478D02*
X9330792Y-15602525D01*
X9330792Y-15602525D02*
X9321268Y-15612049D01*
X9321268Y-15612049D02*
X9302220Y-15621573D01*
X9302220Y-15621573D02*
X9264125Y-15621573D01*
X9264125Y-15621573D02*
X9245077Y-15631097D01*
X9245077Y-15631097D02*
X9235554Y-15640621D01*
X9235554Y-15640621D02*
X9226030Y-15659668D01*
X9226030Y-15659668D02*
X9226030Y-15697763D01*
X9226030Y-15697763D02*
X9235554Y-15716811D01*
X9235554Y-15716811D02*
X9245077Y-15726335D01*
X9245077Y-15726335D02*
X9264125Y-15735859D01*
X9264125Y-15735859D02*
X9302220Y-15735859D01*
X9302220Y-15735859D02*
X9321268Y-15726335D01*
X9321268Y-15726335D02*
X9330792Y-15716811D01*
X9330792Y-15716811D02*
X9340316Y-15697763D01*
X9340316Y-15697763D02*
X9340316Y-15659668D01*
X9340316Y-15659668D02*
X9330792Y-15640621D01*
X9330792Y-15640621D02*
X9321268Y-15631097D01*
X9321268Y-15631097D02*
X9302220Y-15621573D01*
X9464125Y-15535859D02*
X9483173Y-15535859D01*
X9483173Y-15535859D02*
X9502220Y-15545383D01*
X9502220Y-15545383D02*
X9511744Y-15554906D01*
X9511744Y-15554906D02*
X9521268Y-15573954D01*
X9521268Y-15573954D02*
X9530792Y-15612049D01*
X9530792Y-15612049D02*
X9530792Y-15659668D01*
X9530792Y-15659668D02*
X9521268Y-15697763D01*
X9521268Y-15697763D02*
X9511744Y-15716811D01*
X9511744Y-15716811D02*
X9502220Y-15726335D01*
X9502220Y-15726335D02*
X9483173Y-15735859D01*
X9483173Y-15735859D02*
X9464125Y-15735859D01*
X9464125Y-15735859D02*
X9445077Y-15726335D01*
X9445077Y-15726335D02*
X9435554Y-15716811D01*
X9435554Y-15716811D02*
X9426030Y-15697763D01*
X9426030Y-15697763D02*
X9416506Y-15659668D01*
X9416506Y-15659668D02*
X9416506Y-15612049D01*
X9416506Y-15612049D02*
X9426030Y-15573954D01*
X9426030Y-15573954D02*
X9435554Y-15554906D01*
X9435554Y-15554906D02*
X9445077Y-15545383D01*
X9445077Y-15545383D02*
X9464125Y-15535859D01*
X9654601Y-15535859D02*
X9673649Y-15535859D01*
X9673649Y-15535859D02*
X9692697Y-15545383D01*
X9692697Y-15545383D02*
X9702220Y-15554906D01*
X9702220Y-15554906D02*
X9711744Y-15573954D01*
X9711744Y-15573954D02*
X9721268Y-15612049D01*
X9721268Y-15612049D02*
X9721268Y-15659668D01*
X9721268Y-15659668D02*
X9711744Y-15697763D01*
X9711744Y-15697763D02*
X9702220Y-15716811D01*
X9702220Y-15716811D02*
X9692697Y-15726335D01*
X9692697Y-15726335D02*
X9673649Y-15735859D01*
X9673649Y-15735859D02*
X9654601Y-15735859D01*
X9654601Y-15735859D02*
X9635554Y-15726335D01*
X9635554Y-15726335D02*
X9626030Y-15716811D01*
X9626030Y-15716811D02*
X9616506Y-15697763D01*
X9616506Y-15697763D02*
X9606982Y-15659668D01*
X9606982Y-15659668D02*
X9606982Y-15612049D01*
X9606982Y-15612049D02*
X9616506Y-15573954D01*
X9616506Y-15573954D02*
X9626030Y-15554906D01*
X9626030Y-15554906D02*
X9635554Y-15545383D01*
X9635554Y-15545383D02*
X9654601Y-15535859D01*
X9806982Y-15735859D02*
X9806982Y-15602525D01*
X9806982Y-15621573D02*
X9816506Y-15612049D01*
X9816506Y-15612049D02*
X9835554Y-15602525D01*
X9835554Y-15602525D02*
X9864125Y-15602525D01*
X9864125Y-15602525D02*
X9883173Y-15612049D01*
X9883173Y-15612049D02*
X9892697Y-15631097D01*
X9892697Y-15631097D02*
X9892697Y-15735859D01*
X9892697Y-15631097D02*
X9902220Y-15612049D01*
X9902220Y-15612049D02*
X9921268Y-15602525D01*
X9921268Y-15602525D02*
X9949839Y-15602525D01*
X9949839Y-15602525D02*
X9968887Y-15612049D01*
X9968887Y-15612049D02*
X9978411Y-15631097D01*
X9978411Y-15631097D02*
X9978411Y-15735859D01*
X10073649Y-15735859D02*
X10073649Y-15602525D01*
X10073649Y-15621573D02*
X10083173Y-15612049D01*
X10083173Y-15612049D02*
X10102220Y-15602525D01*
X10102220Y-15602525D02*
X10130792Y-15602525D01*
X10130792Y-15602525D02*
X10149839Y-15612049D01*
X10149839Y-15612049D02*
X10159363Y-15631097D01*
X10159363Y-15631097D02*
X10159363Y-15735859D01*
X10159363Y-15631097D02*
X10168887Y-15612049D01*
X10168887Y-15612049D02*
X10187935Y-15602525D01*
X10187935Y-15602525D02*
X10216506Y-15602525D01*
X10216506Y-15602525D02*
X10235554Y-15612049D01*
X10235554Y-15612049D02*
X10245078Y-15631097D01*
X10245078Y-15631097D02*
X10245078Y-15735859D01*
X10635554Y-15526335D02*
X10464125Y-15783478D01*
X10892697Y-15535859D02*
X10911744Y-15535859D01*
X10911744Y-15535859D02*
X10930792Y-15545383D01*
X10930792Y-15545383D02*
X10940316Y-15554906D01*
X10940316Y-15554906D02*
X10949840Y-15573954D01*
X10949840Y-15573954D02*
X10959363Y-15612049D01*
X10959363Y-15612049D02*
X10959363Y-15659668D01*
X10959363Y-15659668D02*
X10949840Y-15697763D01*
X10949840Y-15697763D02*
X10940316Y-15716811D01*
X10940316Y-15716811D02*
X10930792Y-15726335D01*
X10930792Y-15726335D02*
X10911744Y-15735859D01*
X10911744Y-15735859D02*
X10892697Y-15735859D01*
X10892697Y-15735859D02*
X10873649Y-15726335D01*
X10873649Y-15726335D02*
X10864125Y-15716811D01*
X10864125Y-15716811D02*
X10854601Y-15697763D01*
X10854601Y-15697763D02*
X10845078Y-15659668D01*
X10845078Y-15659668D02*
X10845078Y-15612049D01*
X10845078Y-15612049D02*
X10854601Y-15573954D01*
X10854601Y-15573954D02*
X10864125Y-15554906D01*
X10864125Y-15554906D02*
X10873649Y-15545383D01*
X10873649Y-15545383D02*
X10892697Y-15535859D01*
X11045078Y-15716811D02*
X11054601Y-15726335D01*
X11054601Y-15726335D02*
X11045078Y-15735859D01*
X11045078Y-15735859D02*
X11035554Y-15726335D01*
X11035554Y-15726335D02*
X11045078Y-15716811D01*
X11045078Y-15716811D02*
X11045078Y-15735859D01*
X11178411Y-15535859D02*
X11197459Y-15535859D01*
X11197459Y-15535859D02*
X11216506Y-15545383D01*
X11216506Y-15545383D02*
X11226030Y-15554906D01*
X11226030Y-15554906D02*
X11235554Y-15573954D01*
X11235554Y-15573954D02*
X11245078Y-15612049D01*
X11245078Y-15612049D02*
X11245078Y-15659668D01*
X11245078Y-15659668D02*
X11235554Y-15697763D01*
X11235554Y-15697763D02*
X11226030Y-15716811D01*
X11226030Y-15716811D02*
X11216506Y-15726335D01*
X11216506Y-15726335D02*
X11197459Y-15735859D01*
X11197459Y-15735859D02*
X11178411Y-15735859D01*
X11178411Y-15735859D02*
X11159363Y-15726335D01*
X11159363Y-15726335D02*
X11149840Y-15716811D01*
X11149840Y-15716811D02*
X11140316Y-15697763D01*
X11140316Y-15697763D02*
X11130792Y-15659668D01*
X11130792Y-15659668D02*
X11130792Y-15612049D01*
X11130792Y-15612049D02*
X11140316Y-15573954D01*
X11140316Y-15573954D02*
X11149840Y-15554906D01*
X11149840Y-15554906D02*
X11159363Y-15545383D01*
X11159363Y-15545383D02*
X11178411Y-15535859D01*
X11311744Y-15535859D02*
X11435554Y-15535859D01*
X11435554Y-15535859D02*
X11368887Y-15612049D01*
X11368887Y-15612049D02*
X11397459Y-15612049D01*
X11397459Y-15612049D02*
X11416506Y-15621573D01*
X11416506Y-15621573D02*
X11426030Y-15631097D01*
X11426030Y-15631097D02*
X11435554Y-15650144D01*
X11435554Y-15650144D02*
X11435554Y-15697763D01*
X11435554Y-15697763D02*
X11426030Y-15716811D01*
X11426030Y-15716811D02*
X11416506Y-15726335D01*
X11416506Y-15726335D02*
X11397459Y-15735859D01*
X11397459Y-15735859D02*
X11340316Y-15735859D01*
X11340316Y-15735859D02*
X11321268Y-15726335D01*
X11321268Y-15726335D02*
X11311744Y-15716811D01*
X11626030Y-15735859D02*
X11511744Y-15735859D01*
X11568887Y-15735859D02*
X11568887Y-15535859D01*
X11568887Y-15535859D02*
X11549839Y-15564430D01*
X11549839Y-15564430D02*
X11530792Y-15583478D01*
X11530792Y-15583478D02*
X11511744Y-15593002D01*
X11806982Y-15535859D02*
X11711744Y-15535859D01*
X11711744Y-15535859D02*
X11702220Y-15631097D01*
X11702220Y-15631097D02*
X11711744Y-15621573D01*
X11711744Y-15621573D02*
X11730792Y-15612049D01*
X11730792Y-15612049D02*
X11778411Y-15612049D01*
X11778411Y-15612049D02*
X11797459Y-15621573D01*
X11797459Y-15621573D02*
X11806982Y-15631097D01*
X11806982Y-15631097D02*
X11816506Y-15650144D01*
X11816506Y-15650144D02*
X11816506Y-15697763D01*
X11816506Y-15697763D02*
X11806982Y-15716811D01*
X11806982Y-15716811D02*
X11797459Y-15726335D01*
X11797459Y-15726335D02*
X11778411Y-15735859D01*
X11778411Y-15735859D02*
X11730792Y-15735859D01*
X11730792Y-15735859D02*
X11711744Y-15726335D01*
X11711744Y-15726335D02*
X11702220Y-15716811D01*
X11892697Y-15535859D02*
X11892697Y-15573954D01*
X11968887Y-15535859D02*
X11968887Y-15573954D01*
X12264125Y-15812049D02*
X12254601Y-15802525D01*
X12254601Y-15802525D02*
X12235554Y-15773954D01*
X12235554Y-15773954D02*
X12226030Y-15754906D01*
X12226030Y-15754906D02*
X12216506Y-15726335D01*
X12216506Y-15726335D02*
X12206982Y-15678716D01*
X12206982Y-15678716D02*
X12206982Y-15640621D01*
X12206982Y-15640621D02*
X12216506Y-15593002D01*
X12216506Y-15593002D02*
X12226030Y-15564430D01*
X12226030Y-15564430D02*
X12235554Y-15545383D01*
X12235554Y-15545383D02*
X12254601Y-15516811D01*
X12254601Y-15516811D02*
X12264125Y-15507287D01*
X12426030Y-15535859D02*
X12387935Y-15535859D01*
X12387935Y-15535859D02*
X12368887Y-15545383D01*
X12368887Y-15545383D02*
X12359363Y-15554906D01*
X12359363Y-15554906D02*
X12340316Y-15583478D01*
X12340316Y-15583478D02*
X12330792Y-15621573D01*
X12330792Y-15621573D02*
X12330792Y-15697763D01*
X12330792Y-15697763D02*
X12340316Y-15716811D01*
X12340316Y-15716811D02*
X12349840Y-15726335D01*
X12349840Y-15726335D02*
X12368887Y-15735859D01*
X12368887Y-15735859D02*
X12406982Y-15735859D01*
X12406982Y-15735859D02*
X12426030Y-15726335D01*
X12426030Y-15726335D02*
X12435554Y-15716811D01*
X12435554Y-15716811D02*
X12445078Y-15697763D01*
X12445078Y-15697763D02*
X12445078Y-15650144D01*
X12445078Y-15650144D02*
X12435554Y-15631097D01*
X12435554Y-15631097D02*
X12426030Y-15621573D01*
X12426030Y-15621573D02*
X12406982Y-15612049D01*
X12406982Y-15612049D02*
X12368887Y-15612049D01*
X12368887Y-15612049D02*
X12349840Y-15621573D01*
X12349840Y-15621573D02*
X12340316Y-15631097D01*
X12340316Y-15631097D02*
X12330792Y-15650144D01*
X12683173Y-15735859D02*
X12683173Y-15535859D01*
X12768887Y-15735859D02*
X12768887Y-15631097D01*
X12768887Y-15631097D02*
X12759363Y-15612049D01*
X12759363Y-15612049D02*
X12740316Y-15602525D01*
X12740316Y-15602525D02*
X12711744Y-15602525D01*
X12711744Y-15602525D02*
X12692697Y-15612049D01*
X12692697Y-15612049D02*
X12683173Y-15621573D01*
X12892697Y-15735859D02*
X12873649Y-15726335D01*
X12873649Y-15726335D02*
X12864125Y-15716811D01*
X12864125Y-15716811D02*
X12854602Y-15697763D01*
X12854602Y-15697763D02*
X12854602Y-15640621D01*
X12854602Y-15640621D02*
X12864125Y-15621573D01*
X12864125Y-15621573D02*
X12873649Y-15612049D01*
X12873649Y-15612049D02*
X12892697Y-15602525D01*
X12892697Y-15602525D02*
X12921268Y-15602525D01*
X12921268Y-15602525D02*
X12940316Y-15612049D01*
X12940316Y-15612049D02*
X12949840Y-15621573D01*
X12949840Y-15621573D02*
X12959363Y-15640621D01*
X12959363Y-15640621D02*
X12959363Y-15697763D01*
X12959363Y-15697763D02*
X12949840Y-15716811D01*
X12949840Y-15716811D02*
X12940316Y-15726335D01*
X12940316Y-15726335D02*
X12921268Y-15735859D01*
X12921268Y-15735859D02*
X12892697Y-15735859D01*
X13073649Y-15735859D02*
X13054602Y-15726335D01*
X13054602Y-15726335D02*
X13045078Y-15707287D01*
X13045078Y-15707287D02*
X13045078Y-15535859D01*
X13226030Y-15726335D02*
X13206983Y-15735859D01*
X13206983Y-15735859D02*
X13168887Y-15735859D01*
X13168887Y-15735859D02*
X13149840Y-15726335D01*
X13149840Y-15726335D02*
X13140316Y-15707287D01*
X13140316Y-15707287D02*
X13140316Y-15631097D01*
X13140316Y-15631097D02*
X13149840Y-15612049D01*
X13149840Y-15612049D02*
X13168887Y-15602525D01*
X13168887Y-15602525D02*
X13206983Y-15602525D01*
X13206983Y-15602525D02*
X13226030Y-15612049D01*
X13226030Y-15612049D02*
X13235554Y-15631097D01*
X13235554Y-15631097D02*
X13235554Y-15650144D01*
X13235554Y-15650144D02*
X13140316Y-15669192D01*
X13311744Y-15726335D02*
X13330792Y-15735859D01*
X13330792Y-15735859D02*
X13368887Y-15735859D01*
X13368887Y-15735859D02*
X13387935Y-15726335D01*
X13387935Y-15726335D02*
X13397459Y-15707287D01*
X13397459Y-15707287D02*
X13397459Y-15697763D01*
X13397459Y-15697763D02*
X13387935Y-15678716D01*
X13387935Y-15678716D02*
X13368887Y-15669192D01*
X13368887Y-15669192D02*
X13340316Y-15669192D01*
X13340316Y-15669192D02*
X13321268Y-15659668D01*
X13321268Y-15659668D02*
X13311744Y-15640621D01*
X13311744Y-15640621D02*
X13311744Y-15631097D01*
X13311744Y-15631097D02*
X13321268Y-15612049D01*
X13321268Y-15612049D02*
X13340316Y-15602525D01*
X13340316Y-15602525D02*
X13368887Y-15602525D01*
X13368887Y-15602525D02*
X13387935Y-15612049D01*
X13464125Y-15812049D02*
X13473649Y-15802525D01*
X13473649Y-15802525D02*
X13492697Y-15773954D01*
X13492697Y-15773954D02*
X13502221Y-15754906D01*
X13502221Y-15754906D02*
X13511744Y-15726335D01*
X13511744Y-15726335D02*
X13521268Y-15678716D01*
X13521268Y-15678716D02*
X13521268Y-15640621D01*
X13521268Y-15640621D02*
X13511744Y-15593002D01*
X13511744Y-15593002D02*
X13502221Y-15564430D01*
X13502221Y-15564430D02*
X13492697Y-15545383D01*
X13492697Y-15545383D02*
X13473649Y-15516811D01*
X13473649Y-15516811D02*
X13464125Y-15507287D01*
D12*
X8689063Y-15908375D02*
G75*
G02*
X8600163Y-15908375I-44450J0D01*
G01*
X8600163Y-15908375D02*
G75*
G02*
X8689063Y-15908375I44450J0D01*
G01*
D11*
X8987935Y-15799859D02*
X9006982Y-15799859D01*
X9006982Y-15799859D02*
X9026030Y-15809383D01*
X9026030Y-15809383D02*
X9035554Y-15818906D01*
X9035554Y-15818906D02*
X9045077Y-15837954D01*
X9045077Y-15837954D02*
X9054601Y-15876049D01*
X9054601Y-15876049D02*
X9054601Y-15923668D01*
X9054601Y-15923668D02*
X9045077Y-15961763D01*
X9045077Y-15961763D02*
X9035554Y-15980811D01*
X9035554Y-15980811D02*
X9026030Y-15990335D01*
X9026030Y-15990335D02*
X9006982Y-15999859D01*
X9006982Y-15999859D02*
X8987935Y-15999859D01*
X8987935Y-15999859D02*
X8968887Y-15990335D01*
X8968887Y-15990335D02*
X8959363Y-15980811D01*
X8959363Y-15980811D02*
X8949839Y-15961763D01*
X8949839Y-15961763D02*
X8940316Y-15923668D01*
X8940316Y-15923668D02*
X8940316Y-15876049D01*
X8940316Y-15876049D02*
X8949839Y-15837954D01*
X8949839Y-15837954D02*
X8959363Y-15818906D01*
X8959363Y-15818906D02*
X8968887Y-15809383D01*
X8968887Y-15809383D02*
X8987935Y-15799859D01*
X9140316Y-15980811D02*
X9149839Y-15990335D01*
X9149839Y-15990335D02*
X9140316Y-15999859D01*
X9140316Y-15999859D02*
X9130792Y-15990335D01*
X9130792Y-15990335D02*
X9140316Y-15980811D01*
X9140316Y-15980811D02*
X9140316Y-15999859D01*
X9264125Y-15885573D02*
X9245077Y-15876049D01*
X9245077Y-15876049D02*
X9235554Y-15866525D01*
X9235554Y-15866525D02*
X9226030Y-15847478D01*
X9226030Y-15847478D02*
X9226030Y-15837954D01*
X9226030Y-15837954D02*
X9235554Y-15818906D01*
X9235554Y-15818906D02*
X9245077Y-15809383D01*
X9245077Y-15809383D02*
X9264125Y-15799859D01*
X9264125Y-15799859D02*
X9302220Y-15799859D01*
X9302220Y-15799859D02*
X9321268Y-15809383D01*
X9321268Y-15809383D02*
X9330792Y-15818906D01*
X9330792Y-15818906D02*
X9340316Y-15837954D01*
X9340316Y-15837954D02*
X9340316Y-15847478D01*
X9340316Y-15847478D02*
X9330792Y-15866525D01*
X9330792Y-15866525D02*
X9321268Y-15876049D01*
X9321268Y-15876049D02*
X9302220Y-15885573D01*
X9302220Y-15885573D02*
X9264125Y-15885573D01*
X9264125Y-15885573D02*
X9245077Y-15895097D01*
X9245077Y-15895097D02*
X9235554Y-15904621D01*
X9235554Y-15904621D02*
X9226030Y-15923668D01*
X9226030Y-15923668D02*
X9226030Y-15961763D01*
X9226030Y-15961763D02*
X9235554Y-15980811D01*
X9235554Y-15980811D02*
X9245077Y-15990335D01*
X9245077Y-15990335D02*
X9264125Y-15999859D01*
X9264125Y-15999859D02*
X9302220Y-15999859D01*
X9302220Y-15999859D02*
X9321268Y-15990335D01*
X9321268Y-15990335D02*
X9330792Y-15980811D01*
X9330792Y-15980811D02*
X9340316Y-15961763D01*
X9340316Y-15961763D02*
X9340316Y-15923668D01*
X9340316Y-15923668D02*
X9330792Y-15904621D01*
X9330792Y-15904621D02*
X9321268Y-15895097D01*
X9321268Y-15895097D02*
X9302220Y-15885573D01*
X9454601Y-15885573D02*
X9435554Y-15876049D01*
X9435554Y-15876049D02*
X9426030Y-15866525D01*
X9426030Y-15866525D02*
X9416506Y-15847478D01*
X9416506Y-15847478D02*
X9416506Y-15837954D01*
X9416506Y-15837954D02*
X9426030Y-15818906D01*
X9426030Y-15818906D02*
X9435554Y-15809383D01*
X9435554Y-15809383D02*
X9454601Y-15799859D01*
X9454601Y-15799859D02*
X9492697Y-15799859D01*
X9492697Y-15799859D02*
X9511744Y-15809383D01*
X9511744Y-15809383D02*
X9521268Y-15818906D01*
X9521268Y-15818906D02*
X9530792Y-15837954D01*
X9530792Y-15837954D02*
X9530792Y-15847478D01*
X9530792Y-15847478D02*
X9521268Y-15866525D01*
X9521268Y-15866525D02*
X9511744Y-15876049D01*
X9511744Y-15876049D02*
X9492697Y-15885573D01*
X9492697Y-15885573D02*
X9454601Y-15885573D01*
X9454601Y-15885573D02*
X9435554Y-15895097D01*
X9435554Y-15895097D02*
X9426030Y-15904621D01*
X9426030Y-15904621D02*
X9416506Y-15923668D01*
X9416506Y-15923668D02*
X9416506Y-15961763D01*
X9416506Y-15961763D02*
X9426030Y-15980811D01*
X9426030Y-15980811D02*
X9435554Y-15990335D01*
X9435554Y-15990335D02*
X9454601Y-15999859D01*
X9454601Y-15999859D02*
X9492697Y-15999859D01*
X9492697Y-15999859D02*
X9511744Y-15990335D01*
X9511744Y-15990335D02*
X9521268Y-15980811D01*
X9521268Y-15980811D02*
X9530792Y-15961763D01*
X9530792Y-15961763D02*
X9530792Y-15923668D01*
X9530792Y-15923668D02*
X9521268Y-15904621D01*
X9521268Y-15904621D02*
X9511744Y-15895097D01*
X9511744Y-15895097D02*
X9492697Y-15885573D01*
X9626030Y-15999859D02*
X9664125Y-15999859D01*
X9664125Y-15999859D02*
X9683173Y-15990335D01*
X9683173Y-15990335D02*
X9692697Y-15980811D01*
X9692697Y-15980811D02*
X9711744Y-15952240D01*
X9711744Y-15952240D02*
X9721268Y-15914144D01*
X9721268Y-15914144D02*
X9721268Y-15837954D01*
X9721268Y-15837954D02*
X9711744Y-15818906D01*
X9711744Y-15818906D02*
X9702220Y-15809383D01*
X9702220Y-15809383D02*
X9683173Y-15799859D01*
X9683173Y-15799859D02*
X9645077Y-15799859D01*
X9645077Y-15799859D02*
X9626030Y-15809383D01*
X9626030Y-15809383D02*
X9616506Y-15818906D01*
X9616506Y-15818906D02*
X9606982Y-15837954D01*
X9606982Y-15837954D02*
X9606982Y-15885573D01*
X9606982Y-15885573D02*
X9616506Y-15904621D01*
X9616506Y-15904621D02*
X9626030Y-15914144D01*
X9626030Y-15914144D02*
X9645077Y-15923668D01*
X9645077Y-15923668D02*
X9683173Y-15923668D01*
X9683173Y-15923668D02*
X9702220Y-15914144D01*
X9702220Y-15914144D02*
X9711744Y-15904621D01*
X9711744Y-15904621D02*
X9721268Y-15885573D01*
X9806982Y-15999859D02*
X9806982Y-15866525D01*
X9806982Y-15885573D02*
X9816506Y-15876049D01*
X9816506Y-15876049D02*
X9835554Y-15866525D01*
X9835554Y-15866525D02*
X9864125Y-15866525D01*
X9864125Y-15866525D02*
X9883173Y-15876049D01*
X9883173Y-15876049D02*
X9892697Y-15895097D01*
X9892697Y-15895097D02*
X9892697Y-15999859D01*
X9892697Y-15895097D02*
X9902220Y-15876049D01*
X9902220Y-15876049D02*
X9921268Y-15866525D01*
X9921268Y-15866525D02*
X9949839Y-15866525D01*
X9949839Y-15866525D02*
X9968887Y-15876049D01*
X9968887Y-15876049D02*
X9978411Y-15895097D01*
X9978411Y-15895097D02*
X9978411Y-15999859D01*
X10073649Y-15999859D02*
X10073649Y-15866525D01*
X10073649Y-15885573D02*
X10083173Y-15876049D01*
X10083173Y-15876049D02*
X10102220Y-15866525D01*
X10102220Y-15866525D02*
X10130792Y-15866525D01*
X10130792Y-15866525D02*
X10149839Y-15876049D01*
X10149839Y-15876049D02*
X10159363Y-15895097D01*
X10159363Y-15895097D02*
X10159363Y-15999859D01*
X10159363Y-15895097D02*
X10168887Y-15876049D01*
X10168887Y-15876049D02*
X10187935Y-15866525D01*
X10187935Y-15866525D02*
X10216506Y-15866525D01*
X10216506Y-15866525D02*
X10235554Y-15876049D01*
X10235554Y-15876049D02*
X10245078Y-15895097D01*
X10245078Y-15895097D02*
X10245078Y-15999859D01*
X10635554Y-15790335D02*
X10464125Y-16047478D01*
X10892697Y-15799859D02*
X10911744Y-15799859D01*
X10911744Y-15799859D02*
X10930792Y-15809383D01*
X10930792Y-15809383D02*
X10940316Y-15818906D01*
X10940316Y-15818906D02*
X10949840Y-15837954D01*
X10949840Y-15837954D02*
X10959363Y-15876049D01*
X10959363Y-15876049D02*
X10959363Y-15923668D01*
X10959363Y-15923668D02*
X10949840Y-15961763D01*
X10949840Y-15961763D02*
X10940316Y-15980811D01*
X10940316Y-15980811D02*
X10930792Y-15990335D01*
X10930792Y-15990335D02*
X10911744Y-15999859D01*
X10911744Y-15999859D02*
X10892697Y-15999859D01*
X10892697Y-15999859D02*
X10873649Y-15990335D01*
X10873649Y-15990335D02*
X10864125Y-15980811D01*
X10864125Y-15980811D02*
X10854601Y-15961763D01*
X10854601Y-15961763D02*
X10845078Y-15923668D01*
X10845078Y-15923668D02*
X10845078Y-15876049D01*
X10845078Y-15876049D02*
X10854601Y-15837954D01*
X10854601Y-15837954D02*
X10864125Y-15818906D01*
X10864125Y-15818906D02*
X10873649Y-15809383D01*
X10873649Y-15809383D02*
X10892697Y-15799859D01*
X11045078Y-15980811D02*
X11054601Y-15990335D01*
X11054601Y-15990335D02*
X11045078Y-15999859D01*
X11045078Y-15999859D02*
X11035554Y-15990335D01*
X11035554Y-15990335D02*
X11045078Y-15980811D01*
X11045078Y-15980811D02*
X11045078Y-15999859D01*
X11178411Y-15799859D02*
X11197459Y-15799859D01*
X11197459Y-15799859D02*
X11216506Y-15809383D01*
X11216506Y-15809383D02*
X11226030Y-15818906D01*
X11226030Y-15818906D02*
X11235554Y-15837954D01*
X11235554Y-15837954D02*
X11245078Y-15876049D01*
X11245078Y-15876049D02*
X11245078Y-15923668D01*
X11245078Y-15923668D02*
X11235554Y-15961763D01*
X11235554Y-15961763D02*
X11226030Y-15980811D01*
X11226030Y-15980811D02*
X11216506Y-15990335D01*
X11216506Y-15990335D02*
X11197459Y-15999859D01*
X11197459Y-15999859D02*
X11178411Y-15999859D01*
X11178411Y-15999859D02*
X11159363Y-15990335D01*
X11159363Y-15990335D02*
X11149840Y-15980811D01*
X11149840Y-15980811D02*
X11140316Y-15961763D01*
X11140316Y-15961763D02*
X11130792Y-15923668D01*
X11130792Y-15923668D02*
X11130792Y-15876049D01*
X11130792Y-15876049D02*
X11140316Y-15837954D01*
X11140316Y-15837954D02*
X11149840Y-15818906D01*
X11149840Y-15818906D02*
X11159363Y-15809383D01*
X11159363Y-15809383D02*
X11178411Y-15799859D01*
X11311744Y-15799859D02*
X11435554Y-15799859D01*
X11435554Y-15799859D02*
X11368887Y-15876049D01*
X11368887Y-15876049D02*
X11397459Y-15876049D01*
X11397459Y-15876049D02*
X11416506Y-15885573D01*
X11416506Y-15885573D02*
X11426030Y-15895097D01*
X11426030Y-15895097D02*
X11435554Y-15914144D01*
X11435554Y-15914144D02*
X11435554Y-15961763D01*
X11435554Y-15961763D02*
X11426030Y-15980811D01*
X11426030Y-15980811D02*
X11416506Y-15990335D01*
X11416506Y-15990335D02*
X11397459Y-15999859D01*
X11397459Y-15999859D02*
X11340316Y-15999859D01*
X11340316Y-15999859D02*
X11321268Y-15990335D01*
X11321268Y-15990335D02*
X11311744Y-15980811D01*
X11616506Y-15799859D02*
X11521268Y-15799859D01*
X11521268Y-15799859D02*
X11511744Y-15895097D01*
X11511744Y-15895097D02*
X11521268Y-15885573D01*
X11521268Y-15885573D02*
X11540316Y-15876049D01*
X11540316Y-15876049D02*
X11587935Y-15876049D01*
X11587935Y-15876049D02*
X11606982Y-15885573D01*
X11606982Y-15885573D02*
X11616506Y-15895097D01*
X11616506Y-15895097D02*
X11626030Y-15914144D01*
X11626030Y-15914144D02*
X11626030Y-15961763D01*
X11626030Y-15961763D02*
X11616506Y-15980811D01*
X11616506Y-15980811D02*
X11606982Y-15990335D01*
X11606982Y-15990335D02*
X11587935Y-15999859D01*
X11587935Y-15999859D02*
X11540316Y-15999859D01*
X11540316Y-15999859D02*
X11521268Y-15990335D01*
X11521268Y-15990335D02*
X11511744Y-15980811D01*
X11749839Y-15799859D02*
X11768887Y-15799859D01*
X11768887Y-15799859D02*
X11787935Y-15809383D01*
X11787935Y-15809383D02*
X11797459Y-15818906D01*
X11797459Y-15818906D02*
X11806982Y-15837954D01*
X11806982Y-15837954D02*
X11816506Y-15876049D01*
X11816506Y-15876049D02*
X11816506Y-15923668D01*
X11816506Y-15923668D02*
X11806982Y-15961763D01*
X11806982Y-15961763D02*
X11797459Y-15980811D01*
X11797459Y-15980811D02*
X11787935Y-15990335D01*
X11787935Y-15990335D02*
X11768887Y-15999859D01*
X11768887Y-15999859D02*
X11749839Y-15999859D01*
X11749839Y-15999859D02*
X11730792Y-15990335D01*
X11730792Y-15990335D02*
X11721268Y-15980811D01*
X11721268Y-15980811D02*
X11711744Y-15961763D01*
X11711744Y-15961763D02*
X11702220Y-15923668D01*
X11702220Y-15923668D02*
X11702220Y-15876049D01*
X11702220Y-15876049D02*
X11711744Y-15837954D01*
X11711744Y-15837954D02*
X11721268Y-15818906D01*
X11721268Y-15818906D02*
X11730792Y-15809383D01*
X11730792Y-15809383D02*
X11749839Y-15799859D01*
X11892697Y-15799859D02*
X11892697Y-15837954D01*
X11968887Y-15799859D02*
X11968887Y-15837954D01*
X12264125Y-16076049D02*
X12254601Y-16066525D01*
X12254601Y-16066525D02*
X12235554Y-16037954D01*
X12235554Y-16037954D02*
X12226030Y-16018906D01*
X12226030Y-16018906D02*
X12216506Y-15990335D01*
X12216506Y-15990335D02*
X12206982Y-15942716D01*
X12206982Y-15942716D02*
X12206982Y-15904621D01*
X12206982Y-15904621D02*
X12216506Y-15857002D01*
X12216506Y-15857002D02*
X12226030Y-15828430D01*
X12226030Y-15828430D02*
X12235554Y-15809383D01*
X12235554Y-15809383D02*
X12254601Y-15780811D01*
X12254601Y-15780811D02*
X12264125Y-15771287D01*
X12445078Y-15999859D02*
X12330792Y-15999859D01*
X12387935Y-15999859D02*
X12387935Y-15799859D01*
X12387935Y-15799859D02*
X12368887Y-15828430D01*
X12368887Y-15828430D02*
X12349840Y-15847478D01*
X12349840Y-15847478D02*
X12330792Y-15857002D01*
X12616506Y-15866525D02*
X12616506Y-15999859D01*
X12568887Y-15790335D02*
X12521268Y-15933192D01*
X12521268Y-15933192D02*
X12645078Y-15933192D01*
X12873649Y-15999859D02*
X12873649Y-15799859D01*
X12959363Y-15999859D02*
X12959363Y-15895097D01*
X12959363Y-15895097D02*
X12949840Y-15876049D01*
X12949840Y-15876049D02*
X12930792Y-15866525D01*
X12930792Y-15866525D02*
X12902221Y-15866525D01*
X12902221Y-15866525D02*
X12883173Y-15876049D01*
X12883173Y-15876049D02*
X12873649Y-15885573D01*
X13083173Y-15999859D02*
X13064125Y-15990335D01*
X13064125Y-15990335D02*
X13054602Y-15980811D01*
X13054602Y-15980811D02*
X13045078Y-15961763D01*
X13045078Y-15961763D02*
X13045078Y-15904621D01*
X13045078Y-15904621D02*
X13054602Y-15885573D01*
X13054602Y-15885573D02*
X13064125Y-15876049D01*
X13064125Y-15876049D02*
X13083173Y-15866525D01*
X13083173Y-15866525D02*
X13111744Y-15866525D01*
X13111744Y-15866525D02*
X13130792Y-15876049D01*
X13130792Y-15876049D02*
X13140316Y-15885573D01*
X13140316Y-15885573D02*
X13149840Y-15904621D01*
X13149840Y-15904621D02*
X13149840Y-15961763D01*
X13149840Y-15961763D02*
X13140316Y-15980811D01*
X13140316Y-15980811D02*
X13130792Y-15990335D01*
X13130792Y-15990335D02*
X13111744Y-15999859D01*
X13111744Y-15999859D02*
X13083173Y-15999859D01*
X13264125Y-15999859D02*
X13245078Y-15990335D01*
X13245078Y-15990335D02*
X13235554Y-15971287D01*
X13235554Y-15971287D02*
X13235554Y-15799859D01*
X13416506Y-15990335D02*
X13397459Y-15999859D01*
X13397459Y-15999859D02*
X13359363Y-15999859D01*
X13359363Y-15999859D02*
X13340316Y-15990335D01*
X13340316Y-15990335D02*
X13330792Y-15971287D01*
X13330792Y-15971287D02*
X13330792Y-15895097D01*
X13330792Y-15895097D02*
X13340316Y-15876049D01*
X13340316Y-15876049D02*
X13359363Y-15866525D01*
X13359363Y-15866525D02*
X13397459Y-15866525D01*
X13397459Y-15866525D02*
X13416506Y-15876049D01*
X13416506Y-15876049D02*
X13426030Y-15895097D01*
X13426030Y-15895097D02*
X13426030Y-15914144D01*
X13426030Y-15914144D02*
X13330792Y-15933192D01*
X13502221Y-15990335D02*
X13521268Y-15999859D01*
X13521268Y-15999859D02*
X13559363Y-15999859D01*
X13559363Y-15999859D02*
X13578411Y-15990335D01*
X13578411Y-15990335D02*
X13587935Y-15971287D01*
X13587935Y-15971287D02*
X13587935Y-15961763D01*
X13587935Y-15961763D02*
X13578411Y-15942716D01*
X13578411Y-15942716D02*
X13559363Y-15933192D01*
X13559363Y-15933192D02*
X13530792Y-15933192D01*
X13530792Y-15933192D02*
X13511744Y-15923668D01*
X13511744Y-15923668D02*
X13502221Y-15904621D01*
X13502221Y-15904621D02*
X13502221Y-15895097D01*
X13502221Y-15895097D02*
X13511744Y-15876049D01*
X13511744Y-15876049D02*
X13530792Y-15866525D01*
X13530792Y-15866525D02*
X13559363Y-15866525D01*
X13559363Y-15866525D02*
X13578411Y-15876049D01*
X13654602Y-16076049D02*
X13664125Y-16066525D01*
X13664125Y-16066525D02*
X13683173Y-16037954D01*
X13683173Y-16037954D02*
X13692697Y-16018906D01*
X13692697Y-16018906D02*
X13702221Y-15990335D01*
X13702221Y-15990335D02*
X13711744Y-15942716D01*
X13711744Y-15942716D02*
X13711744Y-15904621D01*
X13711744Y-15904621D02*
X13702221Y-15857002D01*
X13702221Y-15857002D02*
X13692697Y-15828430D01*
X13692697Y-15828430D02*
X13683173Y-15809383D01*
X13683173Y-15809383D02*
X13664125Y-15780811D01*
X13664125Y-15780811D02*
X13654602Y-15771287D01*
D13*
X8614063Y-16097375D02*
X8614063Y-16247375D01*
X8539063Y-16172375D02*
X8689063Y-16172375D01*
D11*
X9054601Y-16263859D02*
X8940316Y-16263859D01*
X8997458Y-16263859D02*
X8997458Y-16063859D01*
X8997458Y-16063859D02*
X8978411Y-16092430D01*
X8978411Y-16092430D02*
X8959363Y-16111478D01*
X8959363Y-16111478D02*
X8940316Y-16121002D01*
X9140316Y-16244811D02*
X9149839Y-16254335D01*
X9149839Y-16254335D02*
X9140316Y-16263859D01*
X9140316Y-16263859D02*
X9130792Y-16254335D01*
X9130792Y-16254335D02*
X9140316Y-16244811D01*
X9140316Y-16244811D02*
X9140316Y-16263859D01*
X9330792Y-16063859D02*
X9235554Y-16063859D01*
X9235554Y-16063859D02*
X9226030Y-16159097D01*
X9226030Y-16159097D02*
X9235554Y-16149573D01*
X9235554Y-16149573D02*
X9254601Y-16140049D01*
X9254601Y-16140049D02*
X9302220Y-16140049D01*
X9302220Y-16140049D02*
X9321268Y-16149573D01*
X9321268Y-16149573D02*
X9330792Y-16159097D01*
X9330792Y-16159097D02*
X9340316Y-16178144D01*
X9340316Y-16178144D02*
X9340316Y-16225763D01*
X9340316Y-16225763D02*
X9330792Y-16244811D01*
X9330792Y-16244811D02*
X9321268Y-16254335D01*
X9321268Y-16254335D02*
X9302220Y-16263859D01*
X9302220Y-16263859D02*
X9254601Y-16263859D01*
X9254601Y-16263859D02*
X9235554Y-16254335D01*
X9235554Y-16254335D02*
X9226030Y-16244811D01*
X9464125Y-16063859D02*
X9483173Y-16063859D01*
X9483173Y-16063859D02*
X9502220Y-16073383D01*
X9502220Y-16073383D02*
X9511744Y-16082906D01*
X9511744Y-16082906D02*
X9521268Y-16101954D01*
X9521268Y-16101954D02*
X9530792Y-16140049D01*
X9530792Y-16140049D02*
X9530792Y-16187668D01*
X9530792Y-16187668D02*
X9521268Y-16225763D01*
X9521268Y-16225763D02*
X9511744Y-16244811D01*
X9511744Y-16244811D02*
X9502220Y-16254335D01*
X9502220Y-16254335D02*
X9483173Y-16263859D01*
X9483173Y-16263859D02*
X9464125Y-16263859D01*
X9464125Y-16263859D02*
X9445077Y-16254335D01*
X9445077Y-16254335D02*
X9435554Y-16244811D01*
X9435554Y-16244811D02*
X9426030Y-16225763D01*
X9426030Y-16225763D02*
X9416506Y-16187668D01*
X9416506Y-16187668D02*
X9416506Y-16140049D01*
X9416506Y-16140049D02*
X9426030Y-16101954D01*
X9426030Y-16101954D02*
X9435554Y-16082906D01*
X9435554Y-16082906D02*
X9445077Y-16073383D01*
X9445077Y-16073383D02*
X9464125Y-16063859D01*
X9654601Y-16063859D02*
X9673649Y-16063859D01*
X9673649Y-16063859D02*
X9692697Y-16073383D01*
X9692697Y-16073383D02*
X9702220Y-16082906D01*
X9702220Y-16082906D02*
X9711744Y-16101954D01*
X9711744Y-16101954D02*
X9721268Y-16140049D01*
X9721268Y-16140049D02*
X9721268Y-16187668D01*
X9721268Y-16187668D02*
X9711744Y-16225763D01*
X9711744Y-16225763D02*
X9702220Y-16244811D01*
X9702220Y-16244811D02*
X9692697Y-16254335D01*
X9692697Y-16254335D02*
X9673649Y-16263859D01*
X9673649Y-16263859D02*
X9654601Y-16263859D01*
X9654601Y-16263859D02*
X9635554Y-16254335D01*
X9635554Y-16254335D02*
X9626030Y-16244811D01*
X9626030Y-16244811D02*
X9616506Y-16225763D01*
X9616506Y-16225763D02*
X9606982Y-16187668D01*
X9606982Y-16187668D02*
X9606982Y-16140049D01*
X9606982Y-16140049D02*
X9616506Y-16101954D01*
X9616506Y-16101954D02*
X9626030Y-16082906D01*
X9626030Y-16082906D02*
X9635554Y-16073383D01*
X9635554Y-16073383D02*
X9654601Y-16063859D01*
X9806982Y-16263859D02*
X9806982Y-16130525D01*
X9806982Y-16149573D02*
X9816506Y-16140049D01*
X9816506Y-16140049D02*
X9835554Y-16130525D01*
X9835554Y-16130525D02*
X9864125Y-16130525D01*
X9864125Y-16130525D02*
X9883173Y-16140049D01*
X9883173Y-16140049D02*
X9892697Y-16159097D01*
X9892697Y-16159097D02*
X9892697Y-16263859D01*
X9892697Y-16159097D02*
X9902220Y-16140049D01*
X9902220Y-16140049D02*
X9921268Y-16130525D01*
X9921268Y-16130525D02*
X9949839Y-16130525D01*
X9949839Y-16130525D02*
X9968887Y-16140049D01*
X9968887Y-16140049D02*
X9978411Y-16159097D01*
X9978411Y-16159097D02*
X9978411Y-16263859D01*
X10073649Y-16263859D02*
X10073649Y-16130525D01*
X10073649Y-16149573D02*
X10083173Y-16140049D01*
X10083173Y-16140049D02*
X10102220Y-16130525D01*
X10102220Y-16130525D02*
X10130792Y-16130525D01*
X10130792Y-16130525D02*
X10149839Y-16140049D01*
X10149839Y-16140049D02*
X10159363Y-16159097D01*
X10159363Y-16159097D02*
X10159363Y-16263859D01*
X10159363Y-16159097D02*
X10168887Y-16140049D01*
X10168887Y-16140049D02*
X10187935Y-16130525D01*
X10187935Y-16130525D02*
X10216506Y-16130525D01*
X10216506Y-16130525D02*
X10235554Y-16140049D01*
X10235554Y-16140049D02*
X10245078Y-16159097D01*
X10245078Y-16159097D02*
X10245078Y-16263859D01*
X10635554Y-16054335D02*
X10464125Y-16311478D01*
X10892697Y-16063859D02*
X10911744Y-16063859D01*
X10911744Y-16063859D02*
X10930792Y-16073383D01*
X10930792Y-16073383D02*
X10940316Y-16082906D01*
X10940316Y-16082906D02*
X10949840Y-16101954D01*
X10949840Y-16101954D02*
X10959363Y-16140049D01*
X10959363Y-16140049D02*
X10959363Y-16187668D01*
X10959363Y-16187668D02*
X10949840Y-16225763D01*
X10949840Y-16225763D02*
X10940316Y-16244811D01*
X10940316Y-16244811D02*
X10930792Y-16254335D01*
X10930792Y-16254335D02*
X10911744Y-16263859D01*
X10911744Y-16263859D02*
X10892697Y-16263859D01*
X10892697Y-16263859D02*
X10873649Y-16254335D01*
X10873649Y-16254335D02*
X10864125Y-16244811D01*
X10864125Y-16244811D02*
X10854601Y-16225763D01*
X10854601Y-16225763D02*
X10845078Y-16187668D01*
X10845078Y-16187668D02*
X10845078Y-16140049D01*
X10845078Y-16140049D02*
X10854601Y-16101954D01*
X10854601Y-16101954D02*
X10864125Y-16082906D01*
X10864125Y-16082906D02*
X10873649Y-16073383D01*
X10873649Y-16073383D02*
X10892697Y-16063859D01*
X11045078Y-16244811D02*
X11054601Y-16254335D01*
X11054601Y-16254335D02*
X11045078Y-16263859D01*
X11045078Y-16263859D02*
X11035554Y-16254335D01*
X11035554Y-16254335D02*
X11045078Y-16244811D01*
X11045078Y-16244811D02*
X11045078Y-16263859D01*
X11178411Y-16063859D02*
X11197459Y-16063859D01*
X11197459Y-16063859D02*
X11216506Y-16073383D01*
X11216506Y-16073383D02*
X11226030Y-16082906D01*
X11226030Y-16082906D02*
X11235554Y-16101954D01*
X11235554Y-16101954D02*
X11245078Y-16140049D01*
X11245078Y-16140049D02*
X11245078Y-16187668D01*
X11245078Y-16187668D02*
X11235554Y-16225763D01*
X11235554Y-16225763D02*
X11226030Y-16244811D01*
X11226030Y-16244811D02*
X11216506Y-16254335D01*
X11216506Y-16254335D02*
X11197459Y-16263859D01*
X11197459Y-16263859D02*
X11178411Y-16263859D01*
X11178411Y-16263859D02*
X11159363Y-16254335D01*
X11159363Y-16254335D02*
X11149840Y-16244811D01*
X11149840Y-16244811D02*
X11140316Y-16225763D01*
X11140316Y-16225763D02*
X11130792Y-16187668D01*
X11130792Y-16187668D02*
X11130792Y-16140049D01*
X11130792Y-16140049D02*
X11140316Y-16101954D01*
X11140316Y-16101954D02*
X11149840Y-16082906D01*
X11149840Y-16082906D02*
X11159363Y-16073383D01*
X11159363Y-16073383D02*
X11178411Y-16063859D01*
X11426030Y-16063859D02*
X11330792Y-16063859D01*
X11330792Y-16063859D02*
X11321268Y-16159097D01*
X11321268Y-16159097D02*
X11330792Y-16149573D01*
X11330792Y-16149573D02*
X11349839Y-16140049D01*
X11349839Y-16140049D02*
X11397459Y-16140049D01*
X11397459Y-16140049D02*
X11416506Y-16149573D01*
X11416506Y-16149573D02*
X11426030Y-16159097D01*
X11426030Y-16159097D02*
X11435554Y-16178144D01*
X11435554Y-16178144D02*
X11435554Y-16225763D01*
X11435554Y-16225763D02*
X11426030Y-16244811D01*
X11426030Y-16244811D02*
X11416506Y-16254335D01*
X11416506Y-16254335D02*
X11397459Y-16263859D01*
X11397459Y-16263859D02*
X11349839Y-16263859D01*
X11349839Y-16263859D02*
X11330792Y-16254335D01*
X11330792Y-16254335D02*
X11321268Y-16244811D01*
X11530792Y-16263859D02*
X11568887Y-16263859D01*
X11568887Y-16263859D02*
X11587935Y-16254335D01*
X11587935Y-16254335D02*
X11597459Y-16244811D01*
X11597459Y-16244811D02*
X11616506Y-16216240D01*
X11616506Y-16216240D02*
X11626030Y-16178144D01*
X11626030Y-16178144D02*
X11626030Y-16101954D01*
X11626030Y-16101954D02*
X11616506Y-16082906D01*
X11616506Y-16082906D02*
X11606982Y-16073383D01*
X11606982Y-16073383D02*
X11587935Y-16063859D01*
X11587935Y-16063859D02*
X11549839Y-16063859D01*
X11549839Y-16063859D02*
X11530792Y-16073383D01*
X11530792Y-16073383D02*
X11521268Y-16082906D01*
X11521268Y-16082906D02*
X11511744Y-16101954D01*
X11511744Y-16101954D02*
X11511744Y-16149573D01*
X11511744Y-16149573D02*
X11521268Y-16168621D01*
X11521268Y-16168621D02*
X11530792Y-16178144D01*
X11530792Y-16178144D02*
X11549839Y-16187668D01*
X11549839Y-16187668D02*
X11587935Y-16187668D01*
X11587935Y-16187668D02*
X11606982Y-16178144D01*
X11606982Y-16178144D02*
X11616506Y-16168621D01*
X11616506Y-16168621D02*
X11626030Y-16149573D01*
X11816506Y-16263859D02*
X11702220Y-16263859D01*
X11759363Y-16263859D02*
X11759363Y-16063859D01*
X11759363Y-16063859D02*
X11740316Y-16092430D01*
X11740316Y-16092430D02*
X11721268Y-16111478D01*
X11721268Y-16111478D02*
X11702220Y-16121002D01*
X11892697Y-16063859D02*
X11892697Y-16101954D01*
X11968887Y-16063859D02*
X11968887Y-16101954D01*
X12264125Y-16340049D02*
X12254601Y-16330525D01*
X12254601Y-16330525D02*
X12235554Y-16301954D01*
X12235554Y-16301954D02*
X12226030Y-16282906D01*
X12226030Y-16282906D02*
X12216506Y-16254335D01*
X12216506Y-16254335D02*
X12206982Y-16206716D01*
X12206982Y-16206716D02*
X12206982Y-16168621D01*
X12206982Y-16168621D02*
X12216506Y-16121002D01*
X12216506Y-16121002D02*
X12226030Y-16092430D01*
X12226030Y-16092430D02*
X12235554Y-16073383D01*
X12235554Y-16073383D02*
X12254601Y-16044811D01*
X12254601Y-16044811D02*
X12264125Y-16035287D01*
X12426030Y-16063859D02*
X12387935Y-16063859D01*
X12387935Y-16063859D02*
X12368887Y-16073383D01*
X12368887Y-16073383D02*
X12359363Y-16082906D01*
X12359363Y-16082906D02*
X12340316Y-16111478D01*
X12340316Y-16111478D02*
X12330792Y-16149573D01*
X12330792Y-16149573D02*
X12330792Y-16225763D01*
X12330792Y-16225763D02*
X12340316Y-16244811D01*
X12340316Y-16244811D02*
X12349840Y-16254335D01*
X12349840Y-16254335D02*
X12368887Y-16263859D01*
X12368887Y-16263859D02*
X12406982Y-16263859D01*
X12406982Y-16263859D02*
X12426030Y-16254335D01*
X12426030Y-16254335D02*
X12435554Y-16244811D01*
X12435554Y-16244811D02*
X12445078Y-16225763D01*
X12445078Y-16225763D02*
X12445078Y-16178144D01*
X12445078Y-16178144D02*
X12435554Y-16159097D01*
X12435554Y-16159097D02*
X12426030Y-16149573D01*
X12426030Y-16149573D02*
X12406982Y-16140049D01*
X12406982Y-16140049D02*
X12368887Y-16140049D01*
X12368887Y-16140049D02*
X12349840Y-16149573D01*
X12349840Y-16149573D02*
X12340316Y-16159097D01*
X12340316Y-16159097D02*
X12330792Y-16178144D01*
X12683173Y-16263859D02*
X12683173Y-16063859D01*
X12768887Y-16263859D02*
X12768887Y-16159097D01*
X12768887Y-16159097D02*
X12759363Y-16140049D01*
X12759363Y-16140049D02*
X12740316Y-16130525D01*
X12740316Y-16130525D02*
X12711744Y-16130525D01*
X12711744Y-16130525D02*
X12692697Y-16140049D01*
X12692697Y-16140049D02*
X12683173Y-16149573D01*
X12892697Y-16263859D02*
X12873649Y-16254335D01*
X12873649Y-16254335D02*
X12864125Y-16244811D01*
X12864125Y-16244811D02*
X12854602Y-16225763D01*
X12854602Y-16225763D02*
X12854602Y-16168621D01*
X12854602Y-16168621D02*
X12864125Y-16149573D01*
X12864125Y-16149573D02*
X12873649Y-16140049D01*
X12873649Y-16140049D02*
X12892697Y-16130525D01*
X12892697Y-16130525D02*
X12921268Y-16130525D01*
X12921268Y-16130525D02*
X12940316Y-16140049D01*
X12940316Y-16140049D02*
X12949840Y-16149573D01*
X12949840Y-16149573D02*
X12959363Y-16168621D01*
X12959363Y-16168621D02*
X12959363Y-16225763D01*
X12959363Y-16225763D02*
X12949840Y-16244811D01*
X12949840Y-16244811D02*
X12940316Y-16254335D01*
X12940316Y-16254335D02*
X12921268Y-16263859D01*
X12921268Y-16263859D02*
X12892697Y-16263859D01*
X13073649Y-16263859D02*
X13054602Y-16254335D01*
X13054602Y-16254335D02*
X13045078Y-16235287D01*
X13045078Y-16235287D02*
X13045078Y-16063859D01*
X13226030Y-16254335D02*
X13206983Y-16263859D01*
X13206983Y-16263859D02*
X13168887Y-16263859D01*
X13168887Y-16263859D02*
X13149840Y-16254335D01*
X13149840Y-16254335D02*
X13140316Y-16235287D01*
X13140316Y-16235287D02*
X13140316Y-16159097D01*
X13140316Y-16159097D02*
X13149840Y-16140049D01*
X13149840Y-16140049D02*
X13168887Y-16130525D01*
X13168887Y-16130525D02*
X13206983Y-16130525D01*
X13206983Y-16130525D02*
X13226030Y-16140049D01*
X13226030Y-16140049D02*
X13235554Y-16159097D01*
X13235554Y-16159097D02*
X13235554Y-16178144D01*
X13235554Y-16178144D02*
X13140316Y-16197192D01*
X13311744Y-16254335D02*
X13330792Y-16263859D01*
X13330792Y-16263859D02*
X13368887Y-16263859D01*
X13368887Y-16263859D02*
X13387935Y-16254335D01*
X13387935Y-16254335D02*
X13397459Y-16235287D01*
X13397459Y-16235287D02*
X13397459Y-16225763D01*
X13397459Y-16225763D02*
X13387935Y-16206716D01*
X13387935Y-16206716D02*
X13368887Y-16197192D01*
X13368887Y-16197192D02*
X13340316Y-16197192D01*
X13340316Y-16197192D02*
X13321268Y-16187668D01*
X13321268Y-16187668D02*
X13311744Y-16168621D01*
X13311744Y-16168621D02*
X13311744Y-16159097D01*
X13311744Y-16159097D02*
X13321268Y-16140049D01*
X13321268Y-16140049D02*
X13340316Y-16130525D01*
X13340316Y-16130525D02*
X13368887Y-16130525D01*
X13368887Y-16130525D02*
X13387935Y-16140049D01*
X13464125Y-16340049D02*
X13473649Y-16330525D01*
X13473649Y-16330525D02*
X13492697Y-16301954D01*
X13492697Y-16301954D02*
X13502221Y-16282906D01*
X13502221Y-16282906D02*
X13511744Y-16254335D01*
X13511744Y-16254335D02*
X13521268Y-16206716D01*
X13521268Y-16206716D02*
X13521268Y-16168621D01*
X13521268Y-16168621D02*
X13511744Y-16121002D01*
X13511744Y-16121002D02*
X13502221Y-16092430D01*
X13502221Y-16092430D02*
X13492697Y-16073383D01*
X13492697Y-16073383D02*
X13473649Y-16044811D01*
X13473649Y-16044811D02*
X13464125Y-16035287D01*
M02*
