M48
; DRILL file {KiCad 9.0.2} date 2025-07-01T11:41:15-0700
; FORMAT={-:-/ absolute / metric / decimal}
; #@! TF.CreationDate,2025-07-01T11:41:15-07:00
; #@! TF.GenerationSoftware,Kicad,Pcbnew,9.0.2
; #@! TF.FileFunction,Plated,1,2,PTH
FMAT,2
METRIC
; #@! TA.AperFunction,Plated,PTH,ComponentDrill
T1C0.800
; #@! TA.AperFunction,Plated,PTH,ComponentDrill
T2C0.889
; #@! TA.AperFunction,Plated,PTH,ComponentDrill
T3C1.500
%
G90
G05
T1
X108.347Y-135.731
X108.347Y-143.351
X127.397Y-135.493
X127.397Y-143.113
X146.447Y-135.493
X146.447Y-143.113
T2
X109.65Y-68.58
X109.65Y-71.12
X109.65Y-73.66
X109.65Y-76.2
X109.65Y-78.74
X109.65Y-81.28
X109.65Y-83.82
X124.89Y-68.58
X124.89Y-71.12
X124.89Y-73.66
X124.89Y-76.2
X124.89Y-78.74
X124.89Y-81.28
X124.89Y-83.82
T3
X95.012Y-136.763
X101.362Y-134.223
X114.062Y-136.763
X120.412Y-134.223
X133.112Y-136.763
X139.462Y-134.223
M30
