%TF.GenerationSoftware,KiCad,Pcbnew,9.0.2*%
%TF.CreationDate,2025-07-01T11:41:15-07:00*%
%TF.ProjectId,osu_keypad,6f73755f-6b65-4797-9061-642e6b696361,rev?*%
%TF.SameCoordinates,Original*%
%TF.FileFunction,Drillmap*%
%TF.FilePolarity,Positive*%
%FSLAX45Y45*%
G04 Gerber Fmt 4.5, Leading zero omitted, Abs format (unit mm)*
G04 Created by KiCad (PCBNEW 9.0.2) date 2025-07-01 11:41:15*
%MOMM*%
%LPD*%
G01*
G04 APERTURE LIST*
%ADD10C,0.050000*%
%ADD11C,0.200000*%
%ADD12C,0.175000*%
%ADD13C,0.400000*%
G04 APERTURE END LIST*
D10*
X12942500Y-9540500D02*
X13416500Y-9294500D01*
X10358438Y-6548437D02*
X10358438Y-12620625D01*
X12943500Y-12546500D02*
X12942500Y-9540500D01*
X8691563Y-15001875D02*
X14882812Y-15001875D01*
X13416500Y-8749500D02*
X13096875Y-6548437D01*
X8692500Y-12962500D02*
X10358438Y-12620625D01*
X14882812Y-15001875D02*
X14882812Y-12952500D01*
X8691563Y-15001875D02*
X8692500Y-12962500D01*
X13416500Y-9294500D02*
X13416500Y-8749500D01*
X13096875Y-6548437D02*
X10358438Y-6548437D01*
X14882812Y-12952500D02*
X12943500Y-12546500D01*
D11*
D12*
X9286688Y-13842812D02*
X9461688Y-14017812D01*
X9461688Y-13842812D02*
X9286688Y-14017812D01*
X10302688Y-13842812D02*
X10477688Y-14017812D01*
X10477688Y-13842812D02*
X10302688Y-14017812D01*
X11191687Y-13842812D02*
X11366687Y-14017812D01*
X11366687Y-13842812D02*
X11191687Y-14017812D01*
X12207687Y-13842812D02*
X12382687Y-14017812D01*
X12382687Y-13842812D02*
X12207687Y-14017812D01*
X13096687Y-13842812D02*
X13271687Y-14017812D01*
X13271687Y-13842812D02*
X13096687Y-14017812D01*
X14112687Y-13842812D02*
X14287687Y-14017812D01*
X14287687Y-13842812D02*
X14112687Y-14017812D01*
D13*
X10082188Y-13930312D02*
G75*
G02*
X9682188Y-13930312I-200000J0D01*
G01*
X9682188Y-13930312D02*
G75*
G02*
X10082188Y-13930312I200000J0D01*
G01*
X11987187Y-13930312D02*
G75*
G02*
X11587187Y-13930312I-200000J0D01*
G01*
X11587187Y-13930312D02*
G75*
G02*
X11987187Y-13930312I200000J0D01*
G01*
X13892187Y-13930312D02*
G75*
G02*
X13492187Y-13930312I-200000J0D01*
G01*
X13492187Y-13930312D02*
G75*
G02*
X13892187Y-13930312I200000J0D01*
G01*
D11*
X8949839Y-15315859D02*
X8949839Y-15115859D01*
X8949839Y-15115859D02*
X8997458Y-15115859D01*
X8997458Y-15115859D02*
X9026030Y-15125383D01*
X9026030Y-15125383D02*
X9045077Y-15144430D01*
X9045077Y-15144430D02*
X9054601Y-15163478D01*
X9054601Y-15163478D02*
X9064125Y-15201573D01*
X9064125Y-15201573D02*
X9064125Y-15230144D01*
X9064125Y-15230144D02*
X9054601Y-15268240D01*
X9054601Y-15268240D02*
X9045077Y-15287287D01*
X9045077Y-15287287D02*
X9026030Y-15306335D01*
X9026030Y-15306335D02*
X8997458Y-15315859D01*
X8997458Y-15315859D02*
X8949839Y-15315859D01*
X9149839Y-15315859D02*
X9149839Y-15182525D01*
X9149839Y-15220621D02*
X9159363Y-15201573D01*
X9159363Y-15201573D02*
X9168887Y-15192049D01*
X9168887Y-15192049D02*
X9187935Y-15182525D01*
X9187935Y-15182525D02*
X9206982Y-15182525D01*
X9273649Y-15315859D02*
X9273649Y-15182525D01*
X9273649Y-15115859D02*
X9264125Y-15125383D01*
X9264125Y-15125383D02*
X9273649Y-15134906D01*
X9273649Y-15134906D02*
X9283173Y-15125383D01*
X9283173Y-15125383D02*
X9273649Y-15115859D01*
X9273649Y-15115859D02*
X9273649Y-15134906D01*
X9397458Y-15315859D02*
X9378411Y-15306335D01*
X9378411Y-15306335D02*
X9368887Y-15287287D01*
X9368887Y-15287287D02*
X9368887Y-15115859D01*
X9502220Y-15315859D02*
X9483173Y-15306335D01*
X9483173Y-15306335D02*
X9473649Y-15287287D01*
X9473649Y-15287287D02*
X9473649Y-15115859D01*
X9730792Y-15315859D02*
X9730792Y-15115859D01*
X9730792Y-15115859D02*
X9797458Y-15258716D01*
X9797458Y-15258716D02*
X9864125Y-15115859D01*
X9864125Y-15115859D02*
X9864125Y-15315859D01*
X10045077Y-15315859D02*
X10045077Y-15211097D01*
X10045077Y-15211097D02*
X10035554Y-15192049D01*
X10035554Y-15192049D02*
X10016506Y-15182525D01*
X10016506Y-15182525D02*
X9978411Y-15182525D01*
X9978411Y-15182525D02*
X9959363Y-15192049D01*
X10045077Y-15306335D02*
X10026030Y-15315859D01*
X10026030Y-15315859D02*
X9978411Y-15315859D01*
X9978411Y-15315859D02*
X9959363Y-15306335D01*
X9959363Y-15306335D02*
X9949839Y-15287287D01*
X9949839Y-15287287D02*
X9949839Y-15268240D01*
X9949839Y-15268240D02*
X9959363Y-15249192D01*
X9959363Y-15249192D02*
X9978411Y-15239668D01*
X9978411Y-15239668D02*
X10026030Y-15239668D01*
X10026030Y-15239668D02*
X10045077Y-15230144D01*
X10140316Y-15182525D02*
X10140316Y-15382525D01*
X10140316Y-15192049D02*
X10159363Y-15182525D01*
X10159363Y-15182525D02*
X10197458Y-15182525D01*
X10197458Y-15182525D02*
X10216506Y-15192049D01*
X10216506Y-15192049D02*
X10226030Y-15201573D01*
X10226030Y-15201573D02*
X10235554Y-15220621D01*
X10235554Y-15220621D02*
X10235554Y-15277763D01*
X10235554Y-15277763D02*
X10226030Y-15296811D01*
X10226030Y-15296811D02*
X10216506Y-15306335D01*
X10216506Y-15306335D02*
X10197458Y-15315859D01*
X10197458Y-15315859D02*
X10159363Y-15315859D01*
X10159363Y-15315859D02*
X10140316Y-15306335D01*
X10321268Y-15296811D02*
X10330792Y-15306335D01*
X10330792Y-15306335D02*
X10321268Y-15315859D01*
X10321268Y-15315859D02*
X10311744Y-15306335D01*
X10311744Y-15306335D02*
X10321268Y-15296811D01*
X10321268Y-15296811D02*
X10321268Y-15315859D01*
X10321268Y-15192049D02*
X10330792Y-15201573D01*
X10330792Y-15201573D02*
X10321268Y-15211097D01*
X10321268Y-15211097D02*
X10311744Y-15201573D01*
X10311744Y-15201573D02*
X10321268Y-15192049D01*
X10321268Y-15192049D02*
X10321268Y-15211097D01*
D12*
X8514063Y-15556875D02*
X8689063Y-15731875D01*
X8689063Y-15556875D02*
X8514063Y-15731875D01*
D11*
X9054601Y-15735859D02*
X8940316Y-15735859D01*
X8997458Y-15735859D02*
X8997458Y-15535859D01*
X8997458Y-15535859D02*
X8978411Y-15564430D01*
X8978411Y-15564430D02*
X8959363Y-15583478D01*
X8959363Y-15583478D02*
X8940316Y-15593002D01*
X9140316Y-15716811D02*
X9149839Y-15726335D01*
X9149839Y-15726335D02*
X9140316Y-15735859D01*
X9140316Y-15735859D02*
X9130792Y-15726335D01*
X9130792Y-15726335D02*
X9140316Y-15716811D01*
X9140316Y-15716811D02*
X9140316Y-15735859D01*
X9216506Y-15535859D02*
X9349839Y-15535859D01*
X9349839Y-15535859D02*
X9264125Y-15735859D01*
X9521268Y-15535859D02*
X9426030Y-15535859D01*
X9426030Y-15535859D02*
X9416506Y-15631097D01*
X9416506Y-15631097D02*
X9426030Y-15621573D01*
X9426030Y-15621573D02*
X9445077Y-15612049D01*
X9445077Y-15612049D02*
X9492697Y-15612049D01*
X9492697Y-15612049D02*
X9511744Y-15621573D01*
X9511744Y-15621573D02*
X9521268Y-15631097D01*
X9521268Y-15631097D02*
X9530792Y-15650144D01*
X9530792Y-15650144D02*
X9530792Y-15697763D01*
X9530792Y-15697763D02*
X9521268Y-15716811D01*
X9521268Y-15716811D02*
X9511744Y-15726335D01*
X9511744Y-15726335D02*
X9492697Y-15735859D01*
X9492697Y-15735859D02*
X9445077Y-15735859D01*
X9445077Y-15735859D02*
X9426030Y-15726335D01*
X9426030Y-15726335D02*
X9416506Y-15716811D01*
X9654601Y-15535859D02*
X9673649Y-15535859D01*
X9673649Y-15535859D02*
X9692697Y-15545383D01*
X9692697Y-15545383D02*
X9702220Y-15554906D01*
X9702220Y-15554906D02*
X9711744Y-15573954D01*
X9711744Y-15573954D02*
X9721268Y-15612049D01*
X9721268Y-15612049D02*
X9721268Y-15659668D01*
X9721268Y-15659668D02*
X9711744Y-15697763D01*
X9711744Y-15697763D02*
X9702220Y-15716811D01*
X9702220Y-15716811D02*
X9692697Y-15726335D01*
X9692697Y-15726335D02*
X9673649Y-15735859D01*
X9673649Y-15735859D02*
X9654601Y-15735859D01*
X9654601Y-15735859D02*
X9635554Y-15726335D01*
X9635554Y-15726335D02*
X9626030Y-15716811D01*
X9626030Y-15716811D02*
X9616506Y-15697763D01*
X9616506Y-15697763D02*
X9606982Y-15659668D01*
X9606982Y-15659668D02*
X9606982Y-15612049D01*
X9606982Y-15612049D02*
X9616506Y-15573954D01*
X9616506Y-15573954D02*
X9626030Y-15554906D01*
X9626030Y-15554906D02*
X9635554Y-15545383D01*
X9635554Y-15545383D02*
X9654601Y-15535859D01*
X9806982Y-15735859D02*
X9806982Y-15602525D01*
X9806982Y-15621573D02*
X9816506Y-15612049D01*
X9816506Y-15612049D02*
X9835554Y-15602525D01*
X9835554Y-15602525D02*
X9864125Y-15602525D01*
X9864125Y-15602525D02*
X9883173Y-15612049D01*
X9883173Y-15612049D02*
X9892697Y-15631097D01*
X9892697Y-15631097D02*
X9892697Y-15735859D01*
X9892697Y-15631097D02*
X9902220Y-15612049D01*
X9902220Y-15612049D02*
X9921268Y-15602525D01*
X9921268Y-15602525D02*
X9949839Y-15602525D01*
X9949839Y-15602525D02*
X9968887Y-15612049D01*
X9968887Y-15612049D02*
X9978411Y-15631097D01*
X9978411Y-15631097D02*
X9978411Y-15735859D01*
X10073649Y-15735859D02*
X10073649Y-15602525D01*
X10073649Y-15621573D02*
X10083173Y-15612049D01*
X10083173Y-15612049D02*
X10102220Y-15602525D01*
X10102220Y-15602525D02*
X10130792Y-15602525D01*
X10130792Y-15602525D02*
X10149839Y-15612049D01*
X10149839Y-15612049D02*
X10159363Y-15631097D01*
X10159363Y-15631097D02*
X10159363Y-15735859D01*
X10159363Y-15631097D02*
X10168887Y-15612049D01*
X10168887Y-15612049D02*
X10187935Y-15602525D01*
X10187935Y-15602525D02*
X10216506Y-15602525D01*
X10216506Y-15602525D02*
X10235554Y-15612049D01*
X10235554Y-15612049D02*
X10245078Y-15631097D01*
X10245078Y-15631097D02*
X10245078Y-15735859D01*
X10635554Y-15526335D02*
X10464125Y-15783478D01*
X10892697Y-15535859D02*
X10911744Y-15535859D01*
X10911744Y-15535859D02*
X10930792Y-15545383D01*
X10930792Y-15545383D02*
X10940316Y-15554906D01*
X10940316Y-15554906D02*
X10949840Y-15573954D01*
X10949840Y-15573954D02*
X10959363Y-15612049D01*
X10959363Y-15612049D02*
X10959363Y-15659668D01*
X10959363Y-15659668D02*
X10949840Y-15697763D01*
X10949840Y-15697763D02*
X10940316Y-15716811D01*
X10940316Y-15716811D02*
X10930792Y-15726335D01*
X10930792Y-15726335D02*
X10911744Y-15735859D01*
X10911744Y-15735859D02*
X10892697Y-15735859D01*
X10892697Y-15735859D02*
X10873649Y-15726335D01*
X10873649Y-15726335D02*
X10864125Y-15716811D01*
X10864125Y-15716811D02*
X10854601Y-15697763D01*
X10854601Y-15697763D02*
X10845078Y-15659668D01*
X10845078Y-15659668D02*
X10845078Y-15612049D01*
X10845078Y-15612049D02*
X10854601Y-15573954D01*
X10854601Y-15573954D02*
X10864125Y-15554906D01*
X10864125Y-15554906D02*
X10873649Y-15545383D01*
X10873649Y-15545383D02*
X10892697Y-15535859D01*
X11045078Y-15716811D02*
X11054601Y-15726335D01*
X11054601Y-15726335D02*
X11045078Y-15735859D01*
X11045078Y-15735859D02*
X11035554Y-15726335D01*
X11035554Y-15726335D02*
X11045078Y-15716811D01*
X11045078Y-15716811D02*
X11045078Y-15735859D01*
X11178411Y-15535859D02*
X11197459Y-15535859D01*
X11197459Y-15535859D02*
X11216506Y-15545383D01*
X11216506Y-15545383D02*
X11226030Y-15554906D01*
X11226030Y-15554906D02*
X11235554Y-15573954D01*
X11235554Y-15573954D02*
X11245078Y-15612049D01*
X11245078Y-15612049D02*
X11245078Y-15659668D01*
X11245078Y-15659668D02*
X11235554Y-15697763D01*
X11235554Y-15697763D02*
X11226030Y-15716811D01*
X11226030Y-15716811D02*
X11216506Y-15726335D01*
X11216506Y-15726335D02*
X11197459Y-15735859D01*
X11197459Y-15735859D02*
X11178411Y-15735859D01*
X11178411Y-15735859D02*
X11159363Y-15726335D01*
X11159363Y-15726335D02*
X11149840Y-15716811D01*
X11149840Y-15716811D02*
X11140316Y-15697763D01*
X11140316Y-15697763D02*
X11130792Y-15659668D01*
X11130792Y-15659668D02*
X11130792Y-15612049D01*
X11130792Y-15612049D02*
X11140316Y-15573954D01*
X11140316Y-15573954D02*
X11149840Y-15554906D01*
X11149840Y-15554906D02*
X11159363Y-15545383D01*
X11159363Y-15545383D02*
X11178411Y-15535859D01*
X11416506Y-15535859D02*
X11378411Y-15535859D01*
X11378411Y-15535859D02*
X11359363Y-15545383D01*
X11359363Y-15545383D02*
X11349839Y-15554906D01*
X11349839Y-15554906D02*
X11330792Y-15583478D01*
X11330792Y-15583478D02*
X11321268Y-15621573D01*
X11321268Y-15621573D02*
X11321268Y-15697763D01*
X11321268Y-15697763D02*
X11330792Y-15716811D01*
X11330792Y-15716811D02*
X11340316Y-15726335D01*
X11340316Y-15726335D02*
X11359363Y-15735859D01*
X11359363Y-15735859D02*
X11397459Y-15735859D01*
X11397459Y-15735859D02*
X11416506Y-15726335D01*
X11416506Y-15726335D02*
X11426030Y-15716811D01*
X11426030Y-15716811D02*
X11435554Y-15697763D01*
X11435554Y-15697763D02*
X11435554Y-15650144D01*
X11435554Y-15650144D02*
X11426030Y-15631097D01*
X11426030Y-15631097D02*
X11416506Y-15621573D01*
X11416506Y-15621573D02*
X11397459Y-15612049D01*
X11397459Y-15612049D02*
X11359363Y-15612049D01*
X11359363Y-15612049D02*
X11340316Y-15621573D01*
X11340316Y-15621573D02*
X11330792Y-15631097D01*
X11330792Y-15631097D02*
X11321268Y-15650144D01*
X11549839Y-15621573D02*
X11530792Y-15612049D01*
X11530792Y-15612049D02*
X11521268Y-15602525D01*
X11521268Y-15602525D02*
X11511744Y-15583478D01*
X11511744Y-15583478D02*
X11511744Y-15573954D01*
X11511744Y-15573954D02*
X11521268Y-15554906D01*
X11521268Y-15554906D02*
X11530792Y-15545383D01*
X11530792Y-15545383D02*
X11549839Y-15535859D01*
X11549839Y-15535859D02*
X11587935Y-15535859D01*
X11587935Y-15535859D02*
X11606982Y-15545383D01*
X11606982Y-15545383D02*
X11616506Y-15554906D01*
X11616506Y-15554906D02*
X11626030Y-15573954D01*
X11626030Y-15573954D02*
X11626030Y-15583478D01*
X11626030Y-15583478D02*
X11616506Y-15602525D01*
X11616506Y-15602525D02*
X11606982Y-15612049D01*
X11606982Y-15612049D02*
X11587935Y-15621573D01*
X11587935Y-15621573D02*
X11549839Y-15621573D01*
X11549839Y-15621573D02*
X11530792Y-15631097D01*
X11530792Y-15631097D02*
X11521268Y-15640621D01*
X11521268Y-15640621D02*
X11511744Y-15659668D01*
X11511744Y-15659668D02*
X11511744Y-15697763D01*
X11511744Y-15697763D02*
X11521268Y-15716811D01*
X11521268Y-15716811D02*
X11530792Y-15726335D01*
X11530792Y-15726335D02*
X11549839Y-15735859D01*
X11549839Y-15735859D02*
X11587935Y-15735859D01*
X11587935Y-15735859D02*
X11606982Y-15726335D01*
X11606982Y-15726335D02*
X11616506Y-15716811D01*
X11616506Y-15716811D02*
X11626030Y-15697763D01*
X11626030Y-15697763D02*
X11626030Y-15659668D01*
X11626030Y-15659668D02*
X11616506Y-15640621D01*
X11616506Y-15640621D02*
X11606982Y-15631097D01*
X11606982Y-15631097D02*
X11587935Y-15621573D01*
X11721268Y-15735859D02*
X11759363Y-15735859D01*
X11759363Y-15735859D02*
X11778411Y-15726335D01*
X11778411Y-15726335D02*
X11787935Y-15716811D01*
X11787935Y-15716811D02*
X11806982Y-15688240D01*
X11806982Y-15688240D02*
X11816506Y-15650144D01*
X11816506Y-15650144D02*
X11816506Y-15573954D01*
X11816506Y-15573954D02*
X11806982Y-15554906D01*
X11806982Y-15554906D02*
X11797459Y-15545383D01*
X11797459Y-15545383D02*
X11778411Y-15535859D01*
X11778411Y-15535859D02*
X11740316Y-15535859D01*
X11740316Y-15535859D02*
X11721268Y-15545383D01*
X11721268Y-15545383D02*
X11711744Y-15554906D01*
X11711744Y-15554906D02*
X11702220Y-15573954D01*
X11702220Y-15573954D02*
X11702220Y-15621573D01*
X11702220Y-15621573D02*
X11711744Y-15640621D01*
X11711744Y-15640621D02*
X11721268Y-15650144D01*
X11721268Y-15650144D02*
X11740316Y-15659668D01*
X11740316Y-15659668D02*
X11778411Y-15659668D01*
X11778411Y-15659668D02*
X11797459Y-15650144D01*
X11797459Y-15650144D02*
X11806982Y-15640621D01*
X11806982Y-15640621D02*
X11816506Y-15621573D01*
X11892697Y-15535859D02*
X11892697Y-15573954D01*
X11968887Y-15535859D02*
X11968887Y-15573954D01*
X12264125Y-15812049D02*
X12254601Y-15802525D01*
X12254601Y-15802525D02*
X12235554Y-15773954D01*
X12235554Y-15773954D02*
X12226030Y-15754906D01*
X12226030Y-15754906D02*
X12216506Y-15726335D01*
X12216506Y-15726335D02*
X12206982Y-15678716D01*
X12206982Y-15678716D02*
X12206982Y-15640621D01*
X12206982Y-15640621D02*
X12216506Y-15593002D01*
X12216506Y-15593002D02*
X12226030Y-15564430D01*
X12226030Y-15564430D02*
X12235554Y-15545383D01*
X12235554Y-15545383D02*
X12254601Y-15516811D01*
X12254601Y-15516811D02*
X12264125Y-15507287D01*
X12426030Y-15535859D02*
X12387935Y-15535859D01*
X12387935Y-15535859D02*
X12368887Y-15545383D01*
X12368887Y-15545383D02*
X12359363Y-15554906D01*
X12359363Y-15554906D02*
X12340316Y-15583478D01*
X12340316Y-15583478D02*
X12330792Y-15621573D01*
X12330792Y-15621573D02*
X12330792Y-15697763D01*
X12330792Y-15697763D02*
X12340316Y-15716811D01*
X12340316Y-15716811D02*
X12349840Y-15726335D01*
X12349840Y-15726335D02*
X12368887Y-15735859D01*
X12368887Y-15735859D02*
X12406982Y-15735859D01*
X12406982Y-15735859D02*
X12426030Y-15726335D01*
X12426030Y-15726335D02*
X12435554Y-15716811D01*
X12435554Y-15716811D02*
X12445078Y-15697763D01*
X12445078Y-15697763D02*
X12445078Y-15650144D01*
X12445078Y-15650144D02*
X12435554Y-15631097D01*
X12435554Y-15631097D02*
X12426030Y-15621573D01*
X12426030Y-15621573D02*
X12406982Y-15612049D01*
X12406982Y-15612049D02*
X12368887Y-15612049D01*
X12368887Y-15612049D02*
X12349840Y-15621573D01*
X12349840Y-15621573D02*
X12340316Y-15631097D01*
X12340316Y-15631097D02*
X12330792Y-15650144D01*
X12683173Y-15735859D02*
X12683173Y-15535859D01*
X12768887Y-15735859D02*
X12768887Y-15631097D01*
X12768887Y-15631097D02*
X12759363Y-15612049D01*
X12759363Y-15612049D02*
X12740316Y-15602525D01*
X12740316Y-15602525D02*
X12711744Y-15602525D01*
X12711744Y-15602525D02*
X12692697Y-15612049D01*
X12692697Y-15612049D02*
X12683173Y-15621573D01*
X12892697Y-15735859D02*
X12873649Y-15726335D01*
X12873649Y-15726335D02*
X12864125Y-15716811D01*
X12864125Y-15716811D02*
X12854602Y-15697763D01*
X12854602Y-15697763D02*
X12854602Y-15640621D01*
X12854602Y-15640621D02*
X12864125Y-15621573D01*
X12864125Y-15621573D02*
X12873649Y-15612049D01*
X12873649Y-15612049D02*
X12892697Y-15602525D01*
X12892697Y-15602525D02*
X12921268Y-15602525D01*
X12921268Y-15602525D02*
X12940316Y-15612049D01*
X12940316Y-15612049D02*
X12949840Y-15621573D01*
X12949840Y-15621573D02*
X12959363Y-15640621D01*
X12959363Y-15640621D02*
X12959363Y-15697763D01*
X12959363Y-15697763D02*
X12949840Y-15716811D01*
X12949840Y-15716811D02*
X12940316Y-15726335D01*
X12940316Y-15726335D02*
X12921268Y-15735859D01*
X12921268Y-15735859D02*
X12892697Y-15735859D01*
X13073649Y-15735859D02*
X13054602Y-15726335D01*
X13054602Y-15726335D02*
X13045078Y-15707287D01*
X13045078Y-15707287D02*
X13045078Y-15535859D01*
X13226030Y-15726335D02*
X13206983Y-15735859D01*
X13206983Y-15735859D02*
X13168887Y-15735859D01*
X13168887Y-15735859D02*
X13149840Y-15726335D01*
X13149840Y-15726335D02*
X13140316Y-15707287D01*
X13140316Y-15707287D02*
X13140316Y-15631097D01*
X13140316Y-15631097D02*
X13149840Y-15612049D01*
X13149840Y-15612049D02*
X13168887Y-15602525D01*
X13168887Y-15602525D02*
X13206983Y-15602525D01*
X13206983Y-15602525D02*
X13226030Y-15612049D01*
X13226030Y-15612049D02*
X13235554Y-15631097D01*
X13235554Y-15631097D02*
X13235554Y-15650144D01*
X13235554Y-15650144D02*
X13140316Y-15669192D01*
X13311744Y-15726335D02*
X13330792Y-15735859D01*
X13330792Y-15735859D02*
X13368887Y-15735859D01*
X13368887Y-15735859D02*
X13387935Y-15726335D01*
X13387935Y-15726335D02*
X13397459Y-15707287D01*
X13397459Y-15707287D02*
X13397459Y-15697763D01*
X13397459Y-15697763D02*
X13387935Y-15678716D01*
X13387935Y-15678716D02*
X13368887Y-15669192D01*
X13368887Y-15669192D02*
X13340316Y-15669192D01*
X13340316Y-15669192D02*
X13321268Y-15659668D01*
X13321268Y-15659668D02*
X13311744Y-15640621D01*
X13311744Y-15640621D02*
X13311744Y-15631097D01*
X13311744Y-15631097D02*
X13321268Y-15612049D01*
X13321268Y-15612049D02*
X13340316Y-15602525D01*
X13340316Y-15602525D02*
X13368887Y-15602525D01*
X13368887Y-15602525D02*
X13387935Y-15612049D01*
X13464125Y-15812049D02*
X13473649Y-15802525D01*
X13473649Y-15802525D02*
X13492697Y-15773954D01*
X13492697Y-15773954D02*
X13502221Y-15754906D01*
X13502221Y-15754906D02*
X13511744Y-15726335D01*
X13511744Y-15726335D02*
X13521268Y-15678716D01*
X13521268Y-15678716D02*
X13521268Y-15640621D01*
X13521268Y-15640621D02*
X13511744Y-15593002D01*
X13511744Y-15593002D02*
X13502221Y-15564430D01*
X13502221Y-15564430D02*
X13492697Y-15545383D01*
X13492697Y-15545383D02*
X13473649Y-15516811D01*
X13473649Y-15516811D02*
X13464125Y-15507287D01*
X13826030Y-15812049D02*
X13816506Y-15802525D01*
X13816506Y-15802525D02*
X13797459Y-15773954D01*
X13797459Y-15773954D02*
X13787935Y-15754906D01*
X13787935Y-15754906D02*
X13778411Y-15726335D01*
X13778411Y-15726335D02*
X13768887Y-15678716D01*
X13768887Y-15678716D02*
X13768887Y-15640621D01*
X13768887Y-15640621D02*
X13778411Y-15593002D01*
X13778411Y-15593002D02*
X13787935Y-15564430D01*
X13787935Y-15564430D02*
X13797459Y-15545383D01*
X13797459Y-15545383D02*
X13816506Y-15516811D01*
X13816506Y-15516811D02*
X13826030Y-15507287D01*
X13902221Y-15602525D02*
X13902221Y-15735859D01*
X13902221Y-15621573D02*
X13911744Y-15612049D01*
X13911744Y-15612049D02*
X13930792Y-15602525D01*
X13930792Y-15602525D02*
X13959364Y-15602525D01*
X13959364Y-15602525D02*
X13978411Y-15612049D01*
X13978411Y-15612049D02*
X13987935Y-15631097D01*
X13987935Y-15631097D02*
X13987935Y-15735859D01*
X14111744Y-15735859D02*
X14092697Y-15726335D01*
X14092697Y-15726335D02*
X14083173Y-15716811D01*
X14083173Y-15716811D02*
X14073649Y-15697763D01*
X14073649Y-15697763D02*
X14073649Y-15640621D01*
X14073649Y-15640621D02*
X14083173Y-15621573D01*
X14083173Y-15621573D02*
X14092697Y-15612049D01*
X14092697Y-15612049D02*
X14111744Y-15602525D01*
X14111744Y-15602525D02*
X14140316Y-15602525D01*
X14140316Y-15602525D02*
X14159364Y-15612049D01*
X14159364Y-15612049D02*
X14168887Y-15621573D01*
X14168887Y-15621573D02*
X14178411Y-15640621D01*
X14178411Y-15640621D02*
X14178411Y-15697763D01*
X14178411Y-15697763D02*
X14168887Y-15716811D01*
X14168887Y-15716811D02*
X14159364Y-15726335D01*
X14159364Y-15726335D02*
X14140316Y-15735859D01*
X14140316Y-15735859D02*
X14111744Y-15735859D01*
X14235554Y-15602525D02*
X14311744Y-15602525D01*
X14264125Y-15535859D02*
X14264125Y-15707287D01*
X14264125Y-15707287D02*
X14273649Y-15726335D01*
X14273649Y-15726335D02*
X14292697Y-15735859D01*
X14292697Y-15735859D02*
X14311744Y-15735859D01*
X14530792Y-15602525D02*
X14530792Y-15802525D01*
X14530792Y-15612049D02*
X14549840Y-15602525D01*
X14549840Y-15602525D02*
X14587935Y-15602525D01*
X14587935Y-15602525D02*
X14606983Y-15612049D01*
X14606983Y-15612049D02*
X14616506Y-15621573D01*
X14616506Y-15621573D02*
X14626030Y-15640621D01*
X14626030Y-15640621D02*
X14626030Y-15697763D01*
X14626030Y-15697763D02*
X14616506Y-15716811D01*
X14616506Y-15716811D02*
X14606983Y-15726335D01*
X14606983Y-15726335D02*
X14587935Y-15735859D01*
X14587935Y-15735859D02*
X14549840Y-15735859D01*
X14549840Y-15735859D02*
X14530792Y-15726335D01*
X14740316Y-15735859D02*
X14721268Y-15726335D01*
X14721268Y-15726335D02*
X14711745Y-15707287D01*
X14711745Y-15707287D02*
X14711745Y-15535859D01*
X14902221Y-15735859D02*
X14902221Y-15631097D01*
X14902221Y-15631097D02*
X14892697Y-15612049D01*
X14892697Y-15612049D02*
X14873649Y-15602525D01*
X14873649Y-15602525D02*
X14835554Y-15602525D01*
X14835554Y-15602525D02*
X14816506Y-15612049D01*
X14902221Y-15726335D02*
X14883173Y-15735859D01*
X14883173Y-15735859D02*
X14835554Y-15735859D01*
X14835554Y-15735859D02*
X14816506Y-15726335D01*
X14816506Y-15726335D02*
X14806983Y-15707287D01*
X14806983Y-15707287D02*
X14806983Y-15688240D01*
X14806983Y-15688240D02*
X14816506Y-15669192D01*
X14816506Y-15669192D02*
X14835554Y-15659668D01*
X14835554Y-15659668D02*
X14883173Y-15659668D01*
X14883173Y-15659668D02*
X14902221Y-15650144D01*
X14968887Y-15602525D02*
X15045078Y-15602525D01*
X14997459Y-15535859D02*
X14997459Y-15707287D01*
X14997459Y-15707287D02*
X15006983Y-15726335D01*
X15006983Y-15726335D02*
X15026030Y-15735859D01*
X15026030Y-15735859D02*
X15045078Y-15735859D01*
X15187935Y-15726335D02*
X15168887Y-15735859D01*
X15168887Y-15735859D02*
X15130792Y-15735859D01*
X15130792Y-15735859D02*
X15111745Y-15726335D01*
X15111745Y-15726335D02*
X15102221Y-15707287D01*
X15102221Y-15707287D02*
X15102221Y-15631097D01*
X15102221Y-15631097D02*
X15111745Y-15612049D01*
X15111745Y-15612049D02*
X15130792Y-15602525D01*
X15130792Y-15602525D02*
X15168887Y-15602525D01*
X15168887Y-15602525D02*
X15187935Y-15612049D01*
X15187935Y-15612049D02*
X15197459Y-15631097D01*
X15197459Y-15631097D02*
X15197459Y-15650144D01*
X15197459Y-15650144D02*
X15102221Y-15669192D01*
X15368887Y-15735859D02*
X15368887Y-15535859D01*
X15368887Y-15726335D02*
X15349840Y-15735859D01*
X15349840Y-15735859D02*
X15311745Y-15735859D01*
X15311745Y-15735859D02*
X15292697Y-15726335D01*
X15292697Y-15726335D02*
X15283173Y-15716811D01*
X15283173Y-15716811D02*
X15273649Y-15697763D01*
X15273649Y-15697763D02*
X15273649Y-15640621D01*
X15273649Y-15640621D02*
X15283173Y-15621573D01*
X15283173Y-15621573D02*
X15292697Y-15612049D01*
X15292697Y-15612049D02*
X15311745Y-15602525D01*
X15311745Y-15602525D02*
X15349840Y-15602525D01*
X15349840Y-15602525D02*
X15368887Y-15612049D01*
X15445078Y-15812049D02*
X15454602Y-15802525D01*
X15454602Y-15802525D02*
X15473649Y-15773954D01*
X15473649Y-15773954D02*
X15483173Y-15754906D01*
X15483173Y-15754906D02*
X15492697Y-15726335D01*
X15492697Y-15726335D02*
X15502221Y-15678716D01*
X15502221Y-15678716D02*
X15502221Y-15640621D01*
X15502221Y-15640621D02*
X15492697Y-15593002D01*
X15492697Y-15593002D02*
X15483173Y-15564430D01*
X15483173Y-15564430D02*
X15473649Y-15545383D01*
X15473649Y-15545383D02*
X15454602Y-15516811D01*
X15454602Y-15516811D02*
X15445078Y-15507287D01*
X8689063Y-15939375D02*
G75*
G02*
X8489063Y-15939375I-100000J0D01*
G01*
X8489063Y-15939375D02*
G75*
G02*
X8689063Y-15939375I100000J0D01*
G01*
X9035554Y-15897525D02*
X9035554Y-16030859D01*
X8987935Y-15821335D02*
X8940316Y-15964192D01*
X8940316Y-15964192D02*
X9064125Y-15964192D01*
X9140316Y-16011811D02*
X9149839Y-16021335D01*
X9149839Y-16021335D02*
X9140316Y-16030859D01*
X9140316Y-16030859D02*
X9130792Y-16021335D01*
X9130792Y-16021335D02*
X9140316Y-16011811D01*
X9140316Y-16011811D02*
X9140316Y-16030859D01*
X9273649Y-15830859D02*
X9292697Y-15830859D01*
X9292697Y-15830859D02*
X9311744Y-15840383D01*
X9311744Y-15840383D02*
X9321268Y-15849906D01*
X9321268Y-15849906D02*
X9330792Y-15868954D01*
X9330792Y-15868954D02*
X9340316Y-15907049D01*
X9340316Y-15907049D02*
X9340316Y-15954668D01*
X9340316Y-15954668D02*
X9330792Y-15992763D01*
X9330792Y-15992763D02*
X9321268Y-16011811D01*
X9321268Y-16011811D02*
X9311744Y-16021335D01*
X9311744Y-16021335D02*
X9292697Y-16030859D01*
X9292697Y-16030859D02*
X9273649Y-16030859D01*
X9273649Y-16030859D02*
X9254601Y-16021335D01*
X9254601Y-16021335D02*
X9245077Y-16011811D01*
X9245077Y-16011811D02*
X9235554Y-15992763D01*
X9235554Y-15992763D02*
X9226030Y-15954668D01*
X9226030Y-15954668D02*
X9226030Y-15907049D01*
X9226030Y-15907049D02*
X9235554Y-15868954D01*
X9235554Y-15868954D02*
X9245077Y-15849906D01*
X9245077Y-15849906D02*
X9254601Y-15840383D01*
X9254601Y-15840383D02*
X9273649Y-15830859D01*
X9464125Y-15830859D02*
X9483173Y-15830859D01*
X9483173Y-15830859D02*
X9502220Y-15840383D01*
X9502220Y-15840383D02*
X9511744Y-15849906D01*
X9511744Y-15849906D02*
X9521268Y-15868954D01*
X9521268Y-15868954D02*
X9530792Y-15907049D01*
X9530792Y-15907049D02*
X9530792Y-15954668D01*
X9530792Y-15954668D02*
X9521268Y-15992763D01*
X9521268Y-15992763D02*
X9511744Y-16011811D01*
X9511744Y-16011811D02*
X9502220Y-16021335D01*
X9502220Y-16021335D02*
X9483173Y-16030859D01*
X9483173Y-16030859D02*
X9464125Y-16030859D01*
X9464125Y-16030859D02*
X9445077Y-16021335D01*
X9445077Y-16021335D02*
X9435554Y-16011811D01*
X9435554Y-16011811D02*
X9426030Y-15992763D01*
X9426030Y-15992763D02*
X9416506Y-15954668D01*
X9416506Y-15954668D02*
X9416506Y-15907049D01*
X9416506Y-15907049D02*
X9426030Y-15868954D01*
X9426030Y-15868954D02*
X9435554Y-15849906D01*
X9435554Y-15849906D02*
X9445077Y-15840383D01*
X9445077Y-15840383D02*
X9464125Y-15830859D01*
X9654601Y-15830859D02*
X9673649Y-15830859D01*
X9673649Y-15830859D02*
X9692697Y-15840383D01*
X9692697Y-15840383D02*
X9702220Y-15849906D01*
X9702220Y-15849906D02*
X9711744Y-15868954D01*
X9711744Y-15868954D02*
X9721268Y-15907049D01*
X9721268Y-15907049D02*
X9721268Y-15954668D01*
X9721268Y-15954668D02*
X9711744Y-15992763D01*
X9711744Y-15992763D02*
X9702220Y-16011811D01*
X9702220Y-16011811D02*
X9692697Y-16021335D01*
X9692697Y-16021335D02*
X9673649Y-16030859D01*
X9673649Y-16030859D02*
X9654601Y-16030859D01*
X9654601Y-16030859D02*
X9635554Y-16021335D01*
X9635554Y-16021335D02*
X9626030Y-16011811D01*
X9626030Y-16011811D02*
X9616506Y-15992763D01*
X9616506Y-15992763D02*
X9606982Y-15954668D01*
X9606982Y-15954668D02*
X9606982Y-15907049D01*
X9606982Y-15907049D02*
X9616506Y-15868954D01*
X9616506Y-15868954D02*
X9626030Y-15849906D01*
X9626030Y-15849906D02*
X9635554Y-15840383D01*
X9635554Y-15840383D02*
X9654601Y-15830859D01*
X9806982Y-16030859D02*
X9806982Y-15897525D01*
X9806982Y-15916573D02*
X9816506Y-15907049D01*
X9816506Y-15907049D02*
X9835554Y-15897525D01*
X9835554Y-15897525D02*
X9864125Y-15897525D01*
X9864125Y-15897525D02*
X9883173Y-15907049D01*
X9883173Y-15907049D02*
X9892697Y-15926097D01*
X9892697Y-15926097D02*
X9892697Y-16030859D01*
X9892697Y-15926097D02*
X9902220Y-15907049D01*
X9902220Y-15907049D02*
X9921268Y-15897525D01*
X9921268Y-15897525D02*
X9949839Y-15897525D01*
X9949839Y-15897525D02*
X9968887Y-15907049D01*
X9968887Y-15907049D02*
X9978411Y-15926097D01*
X9978411Y-15926097D02*
X9978411Y-16030859D01*
X10073649Y-16030859D02*
X10073649Y-15897525D01*
X10073649Y-15916573D02*
X10083173Y-15907049D01*
X10083173Y-15907049D02*
X10102220Y-15897525D01*
X10102220Y-15897525D02*
X10130792Y-15897525D01*
X10130792Y-15897525D02*
X10149839Y-15907049D01*
X10149839Y-15907049D02*
X10159363Y-15926097D01*
X10159363Y-15926097D02*
X10159363Y-16030859D01*
X10159363Y-15926097D02*
X10168887Y-15907049D01*
X10168887Y-15907049D02*
X10187935Y-15897525D01*
X10187935Y-15897525D02*
X10216506Y-15897525D01*
X10216506Y-15897525D02*
X10235554Y-15907049D01*
X10235554Y-15907049D02*
X10245078Y-15926097D01*
X10245078Y-15926097D02*
X10245078Y-16030859D01*
X10635554Y-15821335D02*
X10464125Y-16078478D01*
X10892697Y-15830859D02*
X10911744Y-15830859D01*
X10911744Y-15830859D02*
X10930792Y-15840383D01*
X10930792Y-15840383D02*
X10940316Y-15849906D01*
X10940316Y-15849906D02*
X10949840Y-15868954D01*
X10949840Y-15868954D02*
X10959363Y-15907049D01*
X10959363Y-15907049D02*
X10959363Y-15954668D01*
X10959363Y-15954668D02*
X10949840Y-15992763D01*
X10949840Y-15992763D02*
X10940316Y-16011811D01*
X10940316Y-16011811D02*
X10930792Y-16021335D01*
X10930792Y-16021335D02*
X10911744Y-16030859D01*
X10911744Y-16030859D02*
X10892697Y-16030859D01*
X10892697Y-16030859D02*
X10873649Y-16021335D01*
X10873649Y-16021335D02*
X10864125Y-16011811D01*
X10864125Y-16011811D02*
X10854601Y-15992763D01*
X10854601Y-15992763D02*
X10845078Y-15954668D01*
X10845078Y-15954668D02*
X10845078Y-15907049D01*
X10845078Y-15907049D02*
X10854601Y-15868954D01*
X10854601Y-15868954D02*
X10864125Y-15849906D01*
X10864125Y-15849906D02*
X10873649Y-15840383D01*
X10873649Y-15840383D02*
X10892697Y-15830859D01*
X11045078Y-16011811D02*
X11054601Y-16021335D01*
X11054601Y-16021335D02*
X11045078Y-16030859D01*
X11045078Y-16030859D02*
X11035554Y-16021335D01*
X11035554Y-16021335D02*
X11045078Y-16011811D01*
X11045078Y-16011811D02*
X11045078Y-16030859D01*
X11245078Y-16030859D02*
X11130792Y-16030859D01*
X11187935Y-16030859D02*
X11187935Y-15830859D01*
X11187935Y-15830859D02*
X11168887Y-15859430D01*
X11168887Y-15859430D02*
X11149840Y-15878478D01*
X11149840Y-15878478D02*
X11130792Y-15888002D01*
X11426030Y-15830859D02*
X11330792Y-15830859D01*
X11330792Y-15830859D02*
X11321268Y-15926097D01*
X11321268Y-15926097D02*
X11330792Y-15916573D01*
X11330792Y-15916573D02*
X11349839Y-15907049D01*
X11349839Y-15907049D02*
X11397459Y-15907049D01*
X11397459Y-15907049D02*
X11416506Y-15916573D01*
X11416506Y-15916573D02*
X11426030Y-15926097D01*
X11426030Y-15926097D02*
X11435554Y-15945144D01*
X11435554Y-15945144D02*
X11435554Y-15992763D01*
X11435554Y-15992763D02*
X11426030Y-16011811D01*
X11426030Y-16011811D02*
X11416506Y-16021335D01*
X11416506Y-16021335D02*
X11397459Y-16030859D01*
X11397459Y-16030859D02*
X11349839Y-16030859D01*
X11349839Y-16030859D02*
X11330792Y-16021335D01*
X11330792Y-16021335D02*
X11321268Y-16011811D01*
X11502220Y-15830859D02*
X11635554Y-15830859D01*
X11635554Y-15830859D02*
X11549839Y-16030859D01*
X11806982Y-15830859D02*
X11711744Y-15830859D01*
X11711744Y-15830859D02*
X11702220Y-15926097D01*
X11702220Y-15926097D02*
X11711744Y-15916573D01*
X11711744Y-15916573D02*
X11730792Y-15907049D01*
X11730792Y-15907049D02*
X11778411Y-15907049D01*
X11778411Y-15907049D02*
X11797459Y-15916573D01*
X11797459Y-15916573D02*
X11806982Y-15926097D01*
X11806982Y-15926097D02*
X11816506Y-15945144D01*
X11816506Y-15945144D02*
X11816506Y-15992763D01*
X11816506Y-15992763D02*
X11806982Y-16011811D01*
X11806982Y-16011811D02*
X11797459Y-16021335D01*
X11797459Y-16021335D02*
X11778411Y-16030859D01*
X11778411Y-16030859D02*
X11730792Y-16030859D01*
X11730792Y-16030859D02*
X11711744Y-16021335D01*
X11711744Y-16021335D02*
X11702220Y-16011811D01*
X11892697Y-15830859D02*
X11892697Y-15868954D01*
X11968887Y-15830859D02*
X11968887Y-15868954D01*
X12264125Y-16107049D02*
X12254601Y-16097525D01*
X12254601Y-16097525D02*
X12235554Y-16068954D01*
X12235554Y-16068954D02*
X12226030Y-16049906D01*
X12226030Y-16049906D02*
X12216506Y-16021335D01*
X12216506Y-16021335D02*
X12206982Y-15973716D01*
X12206982Y-15973716D02*
X12206982Y-15935621D01*
X12206982Y-15935621D02*
X12216506Y-15888002D01*
X12216506Y-15888002D02*
X12226030Y-15859430D01*
X12226030Y-15859430D02*
X12235554Y-15840383D01*
X12235554Y-15840383D02*
X12254601Y-15811811D01*
X12254601Y-15811811D02*
X12264125Y-15802287D01*
X12321268Y-15830859D02*
X12445078Y-15830859D01*
X12445078Y-15830859D02*
X12378411Y-15907049D01*
X12378411Y-15907049D02*
X12406982Y-15907049D01*
X12406982Y-15907049D02*
X12426030Y-15916573D01*
X12426030Y-15916573D02*
X12435554Y-15926097D01*
X12435554Y-15926097D02*
X12445078Y-15945144D01*
X12445078Y-15945144D02*
X12445078Y-15992763D01*
X12445078Y-15992763D02*
X12435554Y-16011811D01*
X12435554Y-16011811D02*
X12426030Y-16021335D01*
X12426030Y-16021335D02*
X12406982Y-16030859D01*
X12406982Y-16030859D02*
X12349840Y-16030859D01*
X12349840Y-16030859D02*
X12330792Y-16021335D01*
X12330792Y-16021335D02*
X12321268Y-16011811D01*
X12683173Y-16030859D02*
X12683173Y-15830859D01*
X12768887Y-16030859D02*
X12768887Y-15926097D01*
X12768887Y-15926097D02*
X12759363Y-15907049D01*
X12759363Y-15907049D02*
X12740316Y-15897525D01*
X12740316Y-15897525D02*
X12711744Y-15897525D01*
X12711744Y-15897525D02*
X12692697Y-15907049D01*
X12692697Y-15907049D02*
X12683173Y-15916573D01*
X12892697Y-16030859D02*
X12873649Y-16021335D01*
X12873649Y-16021335D02*
X12864125Y-16011811D01*
X12864125Y-16011811D02*
X12854602Y-15992763D01*
X12854602Y-15992763D02*
X12854602Y-15935621D01*
X12854602Y-15935621D02*
X12864125Y-15916573D01*
X12864125Y-15916573D02*
X12873649Y-15907049D01*
X12873649Y-15907049D02*
X12892697Y-15897525D01*
X12892697Y-15897525D02*
X12921268Y-15897525D01*
X12921268Y-15897525D02*
X12940316Y-15907049D01*
X12940316Y-15907049D02*
X12949840Y-15916573D01*
X12949840Y-15916573D02*
X12959363Y-15935621D01*
X12959363Y-15935621D02*
X12959363Y-15992763D01*
X12959363Y-15992763D02*
X12949840Y-16011811D01*
X12949840Y-16011811D02*
X12940316Y-16021335D01*
X12940316Y-16021335D02*
X12921268Y-16030859D01*
X12921268Y-16030859D02*
X12892697Y-16030859D01*
X13073649Y-16030859D02*
X13054602Y-16021335D01*
X13054602Y-16021335D02*
X13045078Y-16002287D01*
X13045078Y-16002287D02*
X13045078Y-15830859D01*
X13226030Y-16021335D02*
X13206983Y-16030859D01*
X13206983Y-16030859D02*
X13168887Y-16030859D01*
X13168887Y-16030859D02*
X13149840Y-16021335D01*
X13149840Y-16021335D02*
X13140316Y-16002287D01*
X13140316Y-16002287D02*
X13140316Y-15926097D01*
X13140316Y-15926097D02*
X13149840Y-15907049D01*
X13149840Y-15907049D02*
X13168887Y-15897525D01*
X13168887Y-15897525D02*
X13206983Y-15897525D01*
X13206983Y-15897525D02*
X13226030Y-15907049D01*
X13226030Y-15907049D02*
X13235554Y-15926097D01*
X13235554Y-15926097D02*
X13235554Y-15945144D01*
X13235554Y-15945144D02*
X13140316Y-15964192D01*
X13311744Y-16021335D02*
X13330792Y-16030859D01*
X13330792Y-16030859D02*
X13368887Y-16030859D01*
X13368887Y-16030859D02*
X13387935Y-16021335D01*
X13387935Y-16021335D02*
X13397459Y-16002287D01*
X13397459Y-16002287D02*
X13397459Y-15992763D01*
X13397459Y-15992763D02*
X13387935Y-15973716D01*
X13387935Y-15973716D02*
X13368887Y-15964192D01*
X13368887Y-15964192D02*
X13340316Y-15964192D01*
X13340316Y-15964192D02*
X13321268Y-15954668D01*
X13321268Y-15954668D02*
X13311744Y-15935621D01*
X13311744Y-15935621D02*
X13311744Y-15926097D01*
X13311744Y-15926097D02*
X13321268Y-15907049D01*
X13321268Y-15907049D02*
X13340316Y-15897525D01*
X13340316Y-15897525D02*
X13368887Y-15897525D01*
X13368887Y-15897525D02*
X13387935Y-15907049D01*
X13464125Y-16107049D02*
X13473649Y-16097525D01*
X13473649Y-16097525D02*
X13492697Y-16068954D01*
X13492697Y-16068954D02*
X13502221Y-16049906D01*
X13502221Y-16049906D02*
X13511744Y-16021335D01*
X13511744Y-16021335D02*
X13521268Y-15973716D01*
X13521268Y-15973716D02*
X13521268Y-15935621D01*
X13521268Y-15935621D02*
X13511744Y-15888002D01*
X13511744Y-15888002D02*
X13502221Y-15859430D01*
X13502221Y-15859430D02*
X13492697Y-15840383D01*
X13492697Y-15840383D02*
X13473649Y-15811811D01*
X13473649Y-15811811D02*
X13464125Y-15802287D01*
X13826030Y-16107049D02*
X13816506Y-16097525D01*
X13816506Y-16097525D02*
X13797459Y-16068954D01*
X13797459Y-16068954D02*
X13787935Y-16049906D01*
X13787935Y-16049906D02*
X13778411Y-16021335D01*
X13778411Y-16021335D02*
X13768887Y-15973716D01*
X13768887Y-15973716D02*
X13768887Y-15935621D01*
X13768887Y-15935621D02*
X13778411Y-15888002D01*
X13778411Y-15888002D02*
X13787935Y-15859430D01*
X13787935Y-15859430D02*
X13797459Y-15840383D01*
X13797459Y-15840383D02*
X13816506Y-15811811D01*
X13816506Y-15811811D02*
X13826030Y-15802287D01*
X13902221Y-15897525D02*
X13902221Y-16030859D01*
X13902221Y-15916573D02*
X13911744Y-15907049D01*
X13911744Y-15907049D02*
X13930792Y-15897525D01*
X13930792Y-15897525D02*
X13959364Y-15897525D01*
X13959364Y-15897525D02*
X13978411Y-15907049D01*
X13978411Y-15907049D02*
X13987935Y-15926097D01*
X13987935Y-15926097D02*
X13987935Y-16030859D01*
X14111744Y-16030859D02*
X14092697Y-16021335D01*
X14092697Y-16021335D02*
X14083173Y-16011811D01*
X14083173Y-16011811D02*
X14073649Y-15992763D01*
X14073649Y-15992763D02*
X14073649Y-15935621D01*
X14073649Y-15935621D02*
X14083173Y-15916573D01*
X14083173Y-15916573D02*
X14092697Y-15907049D01*
X14092697Y-15907049D02*
X14111744Y-15897525D01*
X14111744Y-15897525D02*
X14140316Y-15897525D01*
X14140316Y-15897525D02*
X14159364Y-15907049D01*
X14159364Y-15907049D02*
X14168887Y-15916573D01*
X14168887Y-15916573D02*
X14178411Y-15935621D01*
X14178411Y-15935621D02*
X14178411Y-15992763D01*
X14178411Y-15992763D02*
X14168887Y-16011811D01*
X14168887Y-16011811D02*
X14159364Y-16021335D01*
X14159364Y-16021335D02*
X14140316Y-16030859D01*
X14140316Y-16030859D02*
X14111744Y-16030859D01*
X14235554Y-15897525D02*
X14311744Y-15897525D01*
X14264125Y-15830859D02*
X14264125Y-16002287D01*
X14264125Y-16002287D02*
X14273649Y-16021335D01*
X14273649Y-16021335D02*
X14292697Y-16030859D01*
X14292697Y-16030859D02*
X14311744Y-16030859D01*
X14530792Y-15897525D02*
X14530792Y-16097525D01*
X14530792Y-15907049D02*
X14549840Y-15897525D01*
X14549840Y-15897525D02*
X14587935Y-15897525D01*
X14587935Y-15897525D02*
X14606983Y-15907049D01*
X14606983Y-15907049D02*
X14616506Y-15916573D01*
X14616506Y-15916573D02*
X14626030Y-15935621D01*
X14626030Y-15935621D02*
X14626030Y-15992763D01*
X14626030Y-15992763D02*
X14616506Y-16011811D01*
X14616506Y-16011811D02*
X14606983Y-16021335D01*
X14606983Y-16021335D02*
X14587935Y-16030859D01*
X14587935Y-16030859D02*
X14549840Y-16030859D01*
X14549840Y-16030859D02*
X14530792Y-16021335D01*
X14740316Y-16030859D02*
X14721268Y-16021335D01*
X14721268Y-16021335D02*
X14711745Y-16002287D01*
X14711745Y-16002287D02*
X14711745Y-15830859D01*
X14902221Y-16030859D02*
X14902221Y-15926097D01*
X14902221Y-15926097D02*
X14892697Y-15907049D01*
X14892697Y-15907049D02*
X14873649Y-15897525D01*
X14873649Y-15897525D02*
X14835554Y-15897525D01*
X14835554Y-15897525D02*
X14816506Y-15907049D01*
X14902221Y-16021335D02*
X14883173Y-16030859D01*
X14883173Y-16030859D02*
X14835554Y-16030859D01*
X14835554Y-16030859D02*
X14816506Y-16021335D01*
X14816506Y-16021335D02*
X14806983Y-16002287D01*
X14806983Y-16002287D02*
X14806983Y-15983240D01*
X14806983Y-15983240D02*
X14816506Y-15964192D01*
X14816506Y-15964192D02*
X14835554Y-15954668D01*
X14835554Y-15954668D02*
X14883173Y-15954668D01*
X14883173Y-15954668D02*
X14902221Y-15945144D01*
X14968887Y-15897525D02*
X15045078Y-15897525D01*
X14997459Y-15830859D02*
X14997459Y-16002287D01*
X14997459Y-16002287D02*
X15006983Y-16021335D01*
X15006983Y-16021335D02*
X15026030Y-16030859D01*
X15026030Y-16030859D02*
X15045078Y-16030859D01*
X15187935Y-16021335D02*
X15168887Y-16030859D01*
X15168887Y-16030859D02*
X15130792Y-16030859D01*
X15130792Y-16030859D02*
X15111745Y-16021335D01*
X15111745Y-16021335D02*
X15102221Y-16002287D01*
X15102221Y-16002287D02*
X15102221Y-15926097D01*
X15102221Y-15926097D02*
X15111745Y-15907049D01*
X15111745Y-15907049D02*
X15130792Y-15897525D01*
X15130792Y-15897525D02*
X15168887Y-15897525D01*
X15168887Y-15897525D02*
X15187935Y-15907049D01*
X15187935Y-15907049D02*
X15197459Y-15926097D01*
X15197459Y-15926097D02*
X15197459Y-15945144D01*
X15197459Y-15945144D02*
X15102221Y-15964192D01*
X15368887Y-16030859D02*
X15368887Y-15830859D01*
X15368887Y-16021335D02*
X15349840Y-16030859D01*
X15349840Y-16030859D02*
X15311745Y-16030859D01*
X15311745Y-16030859D02*
X15292697Y-16021335D01*
X15292697Y-16021335D02*
X15283173Y-16011811D01*
X15283173Y-16011811D02*
X15273649Y-15992763D01*
X15273649Y-15992763D02*
X15273649Y-15935621D01*
X15273649Y-15935621D02*
X15283173Y-15916573D01*
X15283173Y-15916573D02*
X15292697Y-15907049D01*
X15292697Y-15907049D02*
X15311745Y-15897525D01*
X15311745Y-15897525D02*
X15349840Y-15897525D01*
X15349840Y-15897525D02*
X15368887Y-15907049D01*
X15445078Y-16107049D02*
X15454602Y-16097525D01*
X15454602Y-16097525D02*
X15473649Y-16068954D01*
X15473649Y-16068954D02*
X15483173Y-16049906D01*
X15483173Y-16049906D02*
X15492697Y-16021335D01*
X15492697Y-16021335D02*
X15502221Y-15973716D01*
X15502221Y-15973716D02*
X15502221Y-15935621D01*
X15502221Y-15935621D02*
X15492697Y-15888002D01*
X15492697Y-15888002D02*
X15483173Y-15859430D01*
X15483173Y-15859430D02*
X15473649Y-15840383D01*
X15473649Y-15840383D02*
X15454602Y-15811811D01*
X15454602Y-15811811D02*
X15445078Y-15802287D01*
M02*
