%TF.GenerationSoftware,KiCad,Pcbnew,9.0.2*%
%TF.CreationDate,2025-06-03T16:06:49-07:00*%
%TF.ProjectId,osu_keypad,6f73755f-6b65-4797-9061-642e6b696361,rev?*%
%TF.SameCoordinates,Original*%
%TF.FileFunction,Copper,L2,Bot*%
%TF.FilePolarity,Positive*%
%FSLAX46Y46*%
G04 Gerber Fmt 4.6, Leading zero omitted, Abs format (unit mm)*
G04 Created by KiCad (PCBNEW 9.0.2) date 2025-06-03 16:06:49*
%MOMM*%
%LPD*%
G01*
G04 APERTURE LIST*
G04 Aperture macros list*
%AMRoundRect*
0 Rectangle with rounded corners*
0 $1 Rounding radius*
0 $2 $3 $4 $5 $6 $7 $8 $9 X,Y pos of 4 corners*
0 Add a 4 corners polygon primitive as box body*
4,1,4,$2,$3,$4,$5,$6,$7,$8,$9,$2,$3,0*
0 Add four circle primitives for the rounded corners*
1,1,$1+$1,$2,$3*
1,1,$1+$1,$4,$5*
1,1,$1+$1,$6,$7*
1,1,$1+$1,$8,$9*
0 Add four rect primitives between the rounded corners*
20,1,$1+$1,$2,$3,$4,$5,0*
20,1,$1+$1,$4,$5,$6,$7,0*
20,1,$1+$1,$6,$7,$8,$9,0*
20,1,$1+$1,$8,$9,$2,$3,0*%
G04 Aperture macros list end*
%TA.AperFunction,ComponentPad*%
%ADD10C,2.500000*%
%TD*%
%TA.AperFunction,ComponentPad*%
%ADD11R,1.600000X1.600000*%
%TD*%
%TA.AperFunction,ComponentPad*%
%ADD12O,1.600000X1.600000*%
%TD*%
%TA.AperFunction,SMDPad,CuDef*%
%ADD13RoundRect,0.152400X-1.063600X-0.609600X1.063600X-0.609600X1.063600X0.609600X-1.063600X0.609600X0*%
%TD*%
%TA.AperFunction,ComponentPad*%
%ADD14C,1.524000*%
%TD*%
%TA.AperFunction,SMDPad,CuDef*%
%ADD15RoundRect,0.152400X1.063600X0.609600X-1.063600X0.609600X-1.063600X-0.609600X1.063600X-0.609600X0*%
%TD*%
%TA.AperFunction,ViaPad*%
%ADD16C,0.600000*%
%TD*%
%TA.AperFunction,Conductor*%
%ADD17C,0.200000*%
%TD*%
G04 APERTURE END LIST*
D10*
%TO.P,S2,1,1*%
%TO.N,C2*%
X110490000Y-92710000D03*
%TO.P,S2,2,2*%
%TO.N,Net-(D2-A)*%
X116840000Y-90170000D03*
%TD*%
%TO.P,S1,1,1*%
%TO.N,C1*%
X91440000Y-92710000D03*
%TO.P,S1,2,2*%
%TO.N,Net-(D1-A)*%
X97790000Y-90170000D03*
%TD*%
%TO.P,S3,1,1*%
%TO.N,C3*%
X129540000Y-92710000D03*
%TO.P,S3,2,2*%
%TO.N,Net-(D3-A)*%
X135890000Y-90170000D03*
%TD*%
D11*
%TO.P,D3,1,K*%
%TO.N,R1*%
X142875000Y-91678125D03*
D12*
%TO.P,D3,2,A*%
%TO.N,Net-(D3-A)*%
X142875000Y-99298125D03*
%TD*%
D11*
%TO.P,D2,1,K*%
%TO.N,R1*%
X123825000Y-91678125D03*
D12*
%TO.P,D2,2,A*%
%TO.N,Net-(D2-A)*%
X123825000Y-99298125D03*
%TD*%
D13*
%TO.P,U2,1,GPIO26/ADC0/A0*%
%TO.N,unconnected-(U2-GPIO26{slash}ADC0{slash}A0-Pad1)*%
X122634375Y-65722500D03*
D14*
X121799375Y-65722500D03*
D13*
%TO.P,U2,2,GPIO27/ADC1/A1*%
%TO.N,unconnected-(U2-GPIO27{slash}ADC1{slash}A1-Pad2)*%
X122634375Y-68262500D03*
D14*
X121799375Y-68262500D03*
D13*
%TO.P,U2,3,GPIO28/ADC2/A2*%
%TO.N,unconnected-(U2-GPIO28{slash}ADC2{slash}A2-Pad3)*%
X122634375Y-70802500D03*
D14*
X121799375Y-70802500D03*
D13*
%TO.P,U2,4,GPIO29/ADC3/A3*%
%TO.N,unconnected-(U2-GPIO29{slash}ADC3{slash}A3-Pad4)*%
X122634375Y-73342500D03*
D14*
X121799375Y-73342500D03*
D13*
%TO.P,U2,5,GPIO6/SDA*%
%TO.N,Net-(U2-GPIO6{slash}SDA)*%
X122634375Y-75882500D03*
D14*
X121799375Y-75882500D03*
D13*
%TO.P,U2,6,GPIO7/SCL*%
%TO.N,unconnected-(U2-GPIO7{slash}SCL-Pad6)*%
X122634375Y-78422500D03*
D14*
X121799375Y-78422500D03*
D13*
%TO.P,U2,7,GPIO0/TX*%
%TO.N,unconnected-(U2-GPIO0{slash}TX-Pad7)*%
X122634375Y-80962500D03*
D14*
X121799375Y-80962500D03*
%TO.P,U2,8,GPIO1/RX*%
%TO.N,R1*%
X106559375Y-80962500D03*
D15*
X105724375Y-80962500D03*
D14*
%TO.P,U2,9,GPIO2/SCK*%
%TO.N,C3*%
X106559375Y-78422500D03*
D15*
X105724375Y-78422500D03*
D14*
%TO.P,U2,10,GPIO4/MISO*%
%TO.N,C2*%
X106559375Y-75882500D03*
D15*
X105724375Y-75882500D03*
D14*
%TO.P,U2,11,GPIO3/MOSI*%
%TO.N,C1*%
X106559375Y-73342500D03*
D15*
X105724375Y-73342500D03*
D14*
%TO.P,U2,12,3V3*%
%TO.N,unconnected-(U2-3V3-Pad12)*%
X106559375Y-70802500D03*
D15*
X105724375Y-70802500D03*
D14*
%TO.P,U2,13,GND*%
%TO.N,unconnected-(U2-GND-Pad13)*%
X106559375Y-68262500D03*
D15*
X105724375Y-68262500D03*
D14*
%TO.P,U2,14,VBUS*%
%TO.N,+5V*%
X106559375Y-65722500D03*
D15*
X105724375Y-65722500D03*
%TD*%
D11*
%TO.P,D1,1,K*%
%TO.N,R1*%
X104775000Y-91678125D03*
D12*
%TO.P,D1,2,A*%
%TO.N,Net-(D1-A)*%
X104775000Y-99298125D03*
%TD*%
D16*
%TO.N,+5V*%
X120225000Y-78475000D03*
X103725000Y-78725000D03*
%TD*%
D17*
%TO.N,R1*%
X142485571Y-92067554D02*
X131091000Y-92067554D01*
X104775000Y-91678125D02*
X105294125Y-91159000D01*
X124344125Y-91159000D02*
X123825000Y-91678125D01*
X131091000Y-92067554D02*
X130182446Y-91159000D01*
X130182446Y-91159000D02*
X124344125Y-91159000D01*
X142875000Y-91678125D02*
X142485571Y-92067554D01*
%TO.N,Net-(D2-A)*%
X123825000Y-99298125D02*
X123825000Y-97155000D01*
X123825000Y-97155000D02*
X116840000Y-90170000D01*
%TO.N,C2*%
X110490000Y-79813125D02*
X106559375Y-75882500D01*
X110490000Y-92710000D02*
X110490000Y-79813125D01*
%TO.N,+5V*%
X103725000Y-78725000D02*
X103725000Y-75563249D01*
X103225000Y-78225000D02*
X103225000Y-67979245D01*
X116569500Y-74819500D02*
X120225000Y-78475000D01*
X103725000Y-78725000D02*
X103225000Y-78225000D01*
X103225000Y-67979245D02*
X105481745Y-65722500D01*
X104468749Y-74819500D02*
X116569500Y-74819500D01*
X105481745Y-65722500D02*
X106559375Y-65722500D01*
X103725000Y-75563249D02*
X104468749Y-74819500D01*
%TD*%
M02*
